<?xml version="1.0" encoding="UTF-8" standalone="no"?>
<!-- Created with Inkscape (http://www.inkscape.org/) -->

<svg
   width="150"
   height="150"
   viewBox="0 0 39.687499 39.687501"
   version="1.1"
   id="svg5"
   inkscape:version="1.1 (c68e22c387, 2021-05-23)"
   sodipodi:docname="ic_02.svg"
   xmlns:inkscape="http://www.inkscape.org/namespaces/inkscape"
   xmlns:sodipodi="http://sodipodi.sourceforge.net/DTD/sodipodi-0.dtd"
   xmlns="http://www.w3.org/2000/svg"
   xmlns:svg="http://www.w3.org/2000/svg">
  <sodipodi:namedview
     id="namedview7"
     pagecolor="#ffffff"
     bordercolor="#666666"
     borderopacity="1.0"
     inkscape:pageshadow="2"
     inkscape:pageopacity="0.0"
     inkscape:pagecheckerboard="0"
     inkscape:document-units="mm"
     showgrid="false"
     inkscape:zoom="0.49887767"
     inkscape:cx="395.88864"
     inkscape:cy="80.179978"
     inkscape:window-width="1366"
     inkscape:window-height="746"
     inkscape:window-x="-8"
     inkscape:window-y="-8"
     inkscape:window-maximized="1"
     inkscape:current-layer="layer1"
     units="px"
     width="150px" />
  <defs
     id="defs2" />
  <g
     inkscape:label="Layer 1"
     inkscape:groupmode="layer"
     id="layer1">
    <path
       class="st0"
       d="m 36.499077,37.648554 v 1.55348 c 0,0.402245 -0.303601,0.72473 -0.675024,0.72473 H 5.1088228 c -0.374646,0 -0.6750248,-0.325958 -0.6750248,-0.72473 v -1.55348 -8.211288 -8.77302 C 3.678033,20.976324 2.9707103,20.983258 2.3828909,20.76831 1.9242582,20.601865 1.5366859,20.303653 1.2524679,19.918744 0.96824194,19.533839 0.78738204,19.065721 0.73247444,18.549049 0.64848744,17.748028 0.87135284,16.84299 1.5076228,15.993424 v 0 c 0.032345,-0.04168 0.06787,-0.08322 0.1098629,-0.117951 L 20.043379,0.43077914 c 0.239014,-0.235799 0.607203,-0.260072 0.872045,-0.03814 L 39.386547,15.809599 v 0 c 0.02905,0.02425 0.05493,0.04849 0.08081,0.07968 0.8559,0.988263 1.069058,2.084031 0.862357,3.009873 -0.103393,0.457723 -0.306836,0.870374 -0.587819,1.206722 -0.280995,0.339824 -0.639505,0.603369 -1.04645,0.759408 -0.645962,0.24967 -1.414653,0.242737 -2.19302,-0.152578 v 8.724486 8.211276 z M 2.5120776,16.964311 c -0.358509,0.502805 -0.4844613,1.005602 -0.4424798,1.428647 0.025876,0.242733 0.1065649,0.457724 0.2357794,0.631114 0.1259642,0.169903 0.2971443,0.298212 0.5038447,0.3745 0.3520401,0.128305 0.8074462,0.09357 1.3274438,-0.169918 L 20.217742,6.0933771 c 0.248694,-0.204581 0.587819,-0.194175 0.823599,0.004 v 0 L 36.663785,19.135535 c 0.0061,0.0065 0.01294,0.01389 0.02258,0.0173 0.571678,0.443841 1.120739,0.513199 1.54707,0.350226 0.197009,-0.07628 0.368189,-0.201121 0.50061,-0.364105 0.135662,-0.162973 0.232547,-0.357164 0.280997,-0.575612 0.106569,-0.478536 -0.02258,-1.068026 -0.500623,-1.64365 L 20.501932,1.8841711 Z m 7.7611674,9.452677 h 8.62351 c 0.335903,0 0.610438,0.287818 0.610438,0.641505 v 7.243826 c 0,0.353687 -0.274535,0.641505 -0.610438,0.641505 h -8.62351 c -0.3358989,0 -0.6104249,-0.287818 -0.6104249,-0.641505 v -7.243826 c 0.0036,-0.353687 0.274526,-0.641505 0.6104249,-0.641505 z m 12.315154,-0.638036 h 8.097071 c 0.361732,0 0.655642,0.325958 0.655642,0.72819 v 11.970163 h 3.804677 v -18.62101 c 0,-0.04849 0.0036,-0.09357 0.01294,-0.138711 L 20.621487,7.5844481 5.7612615,19.724517 c 0.016113,0.05898 0.022582,0.121361 0.022582,0.187258 V 38.473844 H 21.932754 V 26.503682 c 0,-0.402245 0.293909,-0.72473 0.655641,-0.72473 z m 7.441418,1.45292 h -6.782542 v 11.228093 h 6.782542 z M 18.28633,31.320176 h -3.20071 v 2.340634 h 3.20071 z m -4.395732,0 h -3.006927 v 2.340634 h 3.006927 z m -3.006927,-1.283013 h 3.006927 v -2.337161 h -3.006927 z m 4.201949,0 h 3.20071 v -2.337161 h -3.20071 z m 5.290388,-17.199296 c 1.146571,0 2.076747,0.998668 2.076747,2.229667 0,1.230995 -0.930176,2.229664 -2.076747,2.229664 -1.146584,0 -2.076764,-0.998669 -2.076764,-2.229664 0,-1.234471 0.93018,-2.229667 2.076764,-2.229667 z"
       id="path22"
       style="stroke-width:0.334657"/>
  </g>
  <style
     type="text/css"
     id="style20">.st0{fill-rule:evenodd;clip-rule:evenodd;}</style>
</svg>
