<?xml version="1.0" encoding="UTF-8" standalone="no"?>
<!-- Created with Inkscape (http://www.inkscape.org/) -->

<svg
   width="150"
   height="150"
   viewBox="0 0 39.687499 39.687501"
   version="1.1"
   id="svg5"
   inkscape:version="1.1 (c68e22c387, 2021-05-23)"
   sodipodi:docname="ic_05.svg"
   xmlns:inkscape="http://www.inkscape.org/namespaces/inkscape"
   xmlns:sodipodi="http://sodipodi.sourceforge.net/DTD/sodipodi-0.dtd"
   xmlns="http://www.w3.org/2000/svg"
   xmlns:svg="http://www.w3.org/2000/svg">
  <sodipodi:namedview
     id="namedview7"
     pagecolor="#ffffff"
     bordercolor="#666666"
     borderopacity="1.0"
     inkscape:pageshadow="2"
     inkscape:pageopacity="0.0"
     inkscape:pagecheckerboard="0"
     inkscape:document-units="mm"
     showgrid="false"
     inkscape:zoom="1.9955107"
     inkscape:cx="129.03965"
     inkscape:cy="58.631609"
     inkscape:window-width="1366"
     inkscape:window-height="746"
     inkscape:window-x="-8"
     inkscape:window-y="-8"
     inkscape:window-maximized="1"
     inkscape:current-layer="layer1"
     units="px"
     width="150px" />
  <defs
     id="defs2">
    <style
       id="style143">.cls-1{fill-rule:evenodd;}</style>
  </defs>
  <g
     inkscape:label="Layer 1"
     inkscape:groupmode="layer"
     id="layer1">
    <path
       d="m 18.272512,33.820443 a 11.547584,13.317659 0 0 0 3.385883,2.009819 c 2.535645,0.924933 5.351688,0.782368 8.176775,-0.605032 a 0.82008951,0.94579708 0 0 1 0.603007,-0.02782 l 3.618043,1.390877 -0.40703,-3.390265 a 0.83817972,0.96666031 0 0 1 0.301503,-0.87973 8.5657143,9.8787118 0 0 0 1.902488,-2.364493 5.2853562,6.0955233 0 0 0 0.823104,-4.336063 8.1405944,9.3884273 0 0 0 -1.809022,-4.346493 c -0.180901,-0.264268 -0.376879,-0.52158 -0.578886,-0.775415 v 0 a 12.850079,14.819807 0 0 0 0.382909,-2.291472 15.075175,17.385977 0 0 1 1.507518,1.856823 9.8621794,11.373905 0 0 1 2.152735,5.264473 6.9345804,7.9975492 0 0 1 -1.049232,5.660874 9.8591642,11.370428 0 0 1 -1.896457,2.475763 l 0.485421,4.311723 a 0.84119475,0.97013744 0 0 1 -1.085413,1.116179 l -4.594913,-1.738598 a 13.220928,15.247501 0 0 1 -9.045105,0.532011 13.567657,15.647379 0 0 1 -5.445153,-3.859683 c 0.195977,0 0.401,0.02087 0.621097,0.03129 0.657277,0.02088 1.308525,0 1.947713,-0.03477 z M 23.129733,14.02477 a 1.9266073,2.2219278 0 1 1 -1.923593,2.221927 1.9266073,2.2219278 0 0 1 1.923593,-2.221927 z m -12.717418,0 a 1.9266073,2.2219278 0 1 1 -1.923591,2.221927 1.9266073,2.2219278 0 0 1 1.923591,-2.221927 z m 6.35871,0 a 1.9266073,2.2219278 0 1 1 -1.923593,2.221927 1.9235923,2.2184507 0 0 1 1.917562,-2.221927 z M 17.156948,1.7780889 h 0.01507 c 4.20296,0.1599509 7.971754,1.8846397 10.67021,4.5516489 2.758757,2.7261207 4.410996,6.4362872 4.29944,10.4906972 v 0 c -0.108541,4.05441 -1.953743,7.649829 -4.854207,10.188183 -2.837147,2.482717 -6.699406,3.950092 -10.902365,3.824914 A 18.708292,21.575997 0 0 1 12.9962,30.360634 17.680166,20.390273 0 0 1 10.153023,29.362678 L 3.2696973,32.492154 5.5762,26.167136 A 12.768673,14.725922 0 0 1 2.5611639,21.740666 10.618953,12.246681 0 0 1 1.3883157,15.791185 C 1.4998769,11.733299 3.3450734,8.1344012 6.2455379,5.6030044 9.085701,3.1098547 12.944945,1.6459554 17.150919,1.7780889 Z m -0.05126,2.2080187 h -0.01507 C 13.333885,3.8644063 9.9057891,5.1648778 7.4002953,7.3416007 4.9551021,9.4974625 3.3963285,12.498281 3.3088929,15.850297 a 8.7888269,10.136025 0 0 0 0.9617966,4.888937 11.131509,12.837805 0 0 0 3.0572449,4.228269 l 0.569841,0.525057 -1.1004873,3.014729 3.3798539,-1.533444 0.361805,0.177337 a 15.699287,18.105755 0 0 0 2.855237,1.043159 17.1857,19.820013 0 0 0 3.051217,0.427695 c 3.759748,0.125178 7.190857,-1.168339 9.696352,-3.358971 2.445192,-2.141952 4.003966,-5.142771 4.091401,-8.494788 v 0 C 30.332647,13.40583 28.921614,10.311126 26.594008,8.0092225 24.209115,5.651684 20.865441,4.1286728 17.111723,3.9965405 Z"
       id="path835"
       style="stroke-width:0.323787" />
  </g>
  <style
     type="text/css"
     id="style20">.st0{fill-rule:evenodd;clip-rule:evenodd;}</style>
  <style
     type="text/css"
     id="style608">.st0{fill-rule:evenodd;clip-rule:evenodd;}</style>
  <style
     type="text/css"
     id="style721">.st0{fill-rule:evenodd;clip-rule:evenodd;}</style>
</svg>
