<?xml version="1.0" encoding="UTF-8" standalone="no"?>
<!-- Created with Inkscape (http://www.inkscape.org/) -->

<svg
   width="150"
   height="150"
   viewBox="0 0 39.687499 39.687501"
   version="1.1"
   id="svg5"
   inkscape:version="1.1 (c68e22c387, 2021-05-23)"
   sodipodi:docname="ic_03.svg"
   xmlns:inkscape="http://www.inkscape.org/namespaces/inkscape"
   xmlns:sodipodi="http://sodipodi.sourceforge.net/DTD/sodipodi-0.dtd"
   xmlns="http://www.w3.org/2000/svg"
   xmlns:svg="http://www.w3.org/2000/svg">
  <sodipodi:namedview
     id="namedview7"
     pagecolor="#ffffff"
     bordercolor="#666666"
     borderopacity="1.0"
     inkscape:pageshadow="2"
     inkscape:pageopacity="0.0"
     inkscape:pagecheckerboard="0"
     inkscape:document-units="mm"
     showgrid="false"
     inkscape:zoom="1.9955107"
     inkscape:cx="129.03965"
     inkscape:cy="98.721597"
     inkscape:window-width="1366"
     inkscape:window-height="746"
     inkscape:window-x="-8"
     inkscape:window-y="-8"
     inkscape:window-maximized="1"
     inkscape:current-layer="layer1"
     units="px"
     width="150px" />
  <defs
     id="defs2">
    <style
       id="style143">.cls-1{fill-rule:evenodd;}</style>
  </defs>
  <g
     inkscape:label="Layer 1"
     inkscape:groupmode="layer"
     id="layer1">
    <path
       class="cls-1"
       d="m 37.666203,6.5956769 1.591192,2.0238467 a 0.65455716,0.59083261 0 0 1 -0.151883,0.8291235 l -1.233165,0.7932179 -2.35787,-2.9802772 1.236801,-0.7932182 a 0.65817351,0.59409688 0 0 1 0.914925,0.1370995 z M 8.2870732,30.196338 a 0.67284757,0.60734235 0 1 1 0.5858563,1.09353 3.6488849,3.2936469 0 0 1 -1.9998432,0.270935 6.871042,6.2021102 0 0 1 -1.2729518,-0.244822 c 0,0.156686 0.036258,0.326429 0.057817,0.466792 0.065069,0.437411 0.1554992,0.88788 0.2676061,1.348143 a 0.67987153,0.61368249 0 0 1 -0.086824,0.45047 5.2400736,4.7299252 0 0 0 -0.6003009,1.73659 1.5586417,1.4068998 0 0 0 0.4013994,1.135965 2.7773476,2.5069582 0 0 0 1.4682372,0.600624 10.805618,9.7536344 0 0 0 3.7501417,-0.114244 23.506197,21.217746 0 0 0 4.285353,-1.06415 11.666306,10.53053 0 0 0 2.997956,-1.468921 c 0.788355,-0.567983 1.149987,-1.501565 1.446532,-2.284989 0.06507,-0.166476 0.126561,-0.326426 0.155499,-0.391711 l 0.09035,-0.22197 c 0.386955,-0.959695 1.05598,-2.611415 1.931129,-3.234891 a 0.68023965,0.61401478 0 0 1 0.820908,0.979281 c -0.553292,0.368862 -1.121059,1.824726 -1.482701,2.663643 -0.06879,0.173006 -0.05429,0.140363 -0.08682,0.225234 -0.07604,0.176271 -0.112078,0.274199 -0.151884,0.372126 -0.361642,0.949903 -0.799212,2.059754 -1.887736,2.846443 a 12.935641,11.676288 0 0 1 -3.352348,1.632135 c -0.289292,0.10119 -0.578604,0.195856 -0.871533,0.283991 a 10.711592,9.6687635 0 0 1 -0.04704,1.191457 10.939422,9.8744123 0 0 1 -0.329069,1.63213 0.67558768,0.6098157 0 0 1 -1.30188,-0.326426 9.5182014,8.5915548 0 0 0 0.292918,-1.436279 c 0.02528,-0.231763 0.03979,-0.470055 0.04351,-0.708346 -0.795596,0.195855 -1.580344,0.352541 -2.32169,0.473319 A 12.038789,10.86675 0 0 1 6.8549277,38.213383 4.0394494,3.646188 0 0 1 4.6851211,37.273274 2.8424416,2.5657151 0 0 1 3.8967669,35.210255 6.3756038,5.7549055 0 0 1 4.5621759,33.153766 C 4.4718239,32.75226 4.3922027,32.337698 4.3307204,31.906815 a 15.828711,14.287702 0 0 1 -0.1410254,-1.416692 0.36163378,0.32642684 0 0 1 0,-0.05549 0.3905645,0.352541 0 0 1 0,-0.06202 C 4.0920915,29.455355 4.0811748,28.560946 4.0666813,27.656743 v -0.212184 l -1.5550221,-0.08161 v 0 A 2.1155577,1.9095971 0 0 1 1.426751,27.062643 1.9311245,1.7431194 0 0 1 0.73964581,26.360824 2.2602112,2.0401678 0 0 1 0.49012966,25.407658 3.4102067,3.0782052 0 0 1 1.0759663,23.824488 l 1.6671289,-3.068412 c 0.8136763,-1.508091 0.8064442,-1.690892 0.7702741,-2.493902 0,-0.355805 -0.036258,-0.812804 0,-1.495036 a 12.657182,11.42494 0 0 1 0.3254822,-2.31763 8.6394313,7.7983376 0 0 1 0.5605245,-1.468919 l -3.0377234,-1.19146 a 0.67263886,0.60715396 0 0 1 -0.361623,-0.799747 0.61839379,0.55818992 0 0 1 0.075947,-0.114256 v 0 C 8.3086616,1.9799953 16.477968,-0.47147068 23.388788,0.75589452 A 19.166592,17.300624 0 0 1 33.760436,6.1419374 l 0.155509,0.1534205 -0.05429,0.032644 -1.05596,0.6593831 -0.03979,-0.039169 A 17.843011,16.105901 0 0 0 23.142835,1.9473564 C 16.861248,0.83097657 9.4007529,3.0343588 2.677987,10.982852 l 2.8930526,1.132701 a 0.83175773,0.75078178 0 0 1 0.1157719,0.04897 0.67625519,0.61041821 0 0 1 0.2278298,0.835654 6.8421114,6.1759962 0 0 0 -0.7666678,1.733326 11.521653,10.399959 0 0 0 -0.2893122,2.07281 c -0.021755,0.652854 0,1.067417 0,1.4069 0.04351,1.03151 0.05429,1.305707 -0.9113091,3.074941 l -1.670745,3.081469 a 0.69072055,0.62347531 0 0 1 -0.054289,0.09139 2.0613127,1.860633 0 0 0 -0.386945,0.979281 0.91854984,0.82912422 0 0 0 0.1012783,0.378655 0.59307943,0.53534004 0 0 0 0.2133558,0.221971 0.7630473,0.68876066 0 0 0 0.3869647,0.104461 h 0.054289 l 1.9275029,0.10119 a 0.58223041,0.52554724 0 0 1 0.1952757,-0.02938 h 0.068793 l 1.7756295,0.137105 a 0.67302031,0.60749826 0 1 1 -0.1085202,1.21104 H 6.4136839 L 5.411964,27.509851 v 0.127305 c 0,0.78669 0.025283,1.570115 0.094076,2.360067 A 6.3394404,5.7222628 0 0 0 6.9995895,30.35303 2.3289216,2.102189 0 0 0 8.2761573,30.196344 Z M 37.875953,12.210218 a 18.870051,17.032953 0 0 1 0.998104,3.558053 c 0.900471,5.852832 -1.699674,12.110436 -9.706239,16.353985 a 0.60754478,0.54839712 0 0 1 -0.216982,0.07182 25.245654,22.787858 0 0 0 0.180812,2.582037 22.21878,20.055666 0 0 0 1.258487,4.658111 0.67263886,0.60715396 0 1 1 -1.258487,0.427619 23.506197,21.217746 0 0 1 -1.338041,-4.935573 27.520332,24.841084 0 0 1 -0.02901,-5.549258 0.67263886,0.60715396 0 0 1 1.338051,0.124043 c -0.05057,0.44394 -0.09035,0.881352 -0.112078,1.305707 7.062703,-3.936707 9.362687,-9.587156 8.54902,-14.85895 A 17.289711,15.606467 0 0 0 36.736775,12.951204 Z M 20.680261,8.7500943 a 2.9509317,2.6636432 0 0 1 1.898584,-1.233894 2.9907115,2.6995502 0 0 1 1.956431,0.2546136 3.2547042,2.9378418 0 0 1 1.399533,1.2110432 2.9436991,2.6571146 0 0 1 0.26399,0.616947 3.0811199,2.7811568 0 0 1 1.041506,0.1534204 3.6163378,3.2642684 0 0 1 0.75582,0.3264275 l -1.287426,0.82586 a 1.6128867,1.4558638 0 0 0 -0.542454,-0.07182 v 0 A 3.1859937,2.8758206 0 0 1 25.544238,11.834828 0.65817351,0.59409688 0 1 1 24.538902,11.070989 1.4465351,1.3057074 0 0 0 24.77757,9.5465758 1.9347408,1.7463836 0 0 0 23.945814,8.8317021 1.6598991,1.4982993 0 0 0 22.860915,8.681544 c -0.49182,0.091397 -0.969175,0.4341481 -1.298264,1.1327029 a 0.4954383,0.44720479 0 0 1 0,0.09466 V 22.172762 a 0.5532997,0.49943309 0 0 1 0.02528,0.09467 c 0.19167,1.038037 0.687105,1.537471 1.24763,1.677834 a 1.9383572,1.749648 0 0 0 1.587576,-0.326427 1.7466912,1.5766417 0 0 0 0.799212,-1.204515 c 0,-0.528812 -0.423115,-1.126173 -1.573112,-1.654985 a 0.6623074,0.59782832 0 1 1 0.603937,-1.06415 c 1.269326,0.584303 1.934735,1.305706 2.169796,2.02711 a 2.2348968,2.017318 0 0 0 1.084909,-0.789953 3.0232586,2.7289286 0 0 0 0.488194,-1.893275 0.67987153,0.61368249 0 0 1 0.325472,-0.652855 3.6163378,3.2642684 0 0 0 1.113837,-0.861766 2.1987335,1.9846753 0 0 0 0.361632,-0.620212 l 0.361633,-0.03917 A 1.808169,1.6321343 0 0 0 31.08443,16.571287 L 31.25802,16.4603 v 0.02937 a 3.4138231,3.0814695 0 0 1 -0.697964,1.769233 4.7627171,4.2990417 0 0 1 -1.149987,0.97928 4.3142912,3.8942724 0 0 1 -0.748587,2.399239 3.4969987,3.1565477 0 0 1 -2.205967,1.344877 3.3993576,3.0684124 0 0 1 -3.977971,2.115247 2.7773476,2.5069582 0 0 1 -1.724995,-1.305708 2.9834788,2.6930215 0 0 1 -1.970905,1.341614 3.1100506,2.8072709 0 0 1 -2.509744,-0.571247 3.0449565,2.7485141 0 0 1 -1.124674,-1.563584 3.1172833,2.8137995 0 0 1 -0.875149,-0.150156 4.0032861,3.6135452 0 0 1 -1.725005,-1.067417 3.9779718,3.5906954 0 0 1 -0.940238,-1.831254 3.6344196,3.28059 0 0 1 0.03979,-1.13923 4.4661774,4.0313717 0 0 1 -0.791981,-0.855238 3.6525013,3.2969113 0 0 1 -0.560524,-1.759442 3.4861497,3.1467549 0 0 1 0.705185,-1.847574 4.8422765,4.3708556 0 0 1 1.110211,-0.979281 3.3234145,2.9998628 0 0 1 0,-0.326427 4.2817442,3.864894 0 0 1 0.951095,-2.311097 3.3848923,3.0553554 0 0 1 2.093861,-1.1261731 v 0 a 2.9436991,2.6571146 0 0 1 0.0976,-0.3035765 3.1823773,2.8725563 0 0 1 1.392291,-1.459128 3.0232586,2.7289286 0 0 1 2.133636,-0.326427 2.9436991,2.6571146 0 0 1 1.894969,1.2338939 z M 15.215982,21.784319 c 0.264,-0.747519 0.954712,-1.488507 2.263824,-2.092396 a 0.66178984,0.59736114 0 1 1 0.60031,1.064151 c -1.211469,0.558189 -1.677986,1.197986 -1.677986,1.756175 a 1.627352,1.4689208 0 0 0 0.687115,1.12291 1.808169,1.6321343 0 0 0 1.446541,0.326426 c 0.614775,-0.117513 1.211469,-0.630004 1.518861,-1.752912 V 10.4214 C 19.747255,9.3082832 19.150561,8.789265 18.535786,8.681544 a 1.7105279,1.5439991 0 0 0 -1.204257,0.2023854 1.8515651,1.6713056 0 0 0 -0.813667,0.8421809 c -0.188043,0.4602627 -0.07604,1.0282447 0.560525,1.5635847 a 0.65817351,0.59409688 0 0 1 -0.889613,0.87156 3.3414962,3.0161841 0 0 1 -0.958337,-1.305708 2.0540799,1.8541045 0 0 0 -1.084899,0.652854 2.9292337,2.6440575 0 0 0 -0.643693,1.576641 3.1932264,2.8823491 0 0 0 0.03254,0.522284 v 0 a 0.67987153,0.61368249 0 0 1 -0.318231,0.607153 3.8513999,3.476446 0 0 0 -1.084899,0.861768 2.1698028,1.9585611 0 0 0 -0.444821,1.132701 2.2855256,2.0630179 0 0 0 0.361633,1.096794 3.0992017,2.7974782 0 0 0 0.763052,0.78016 0.6871042,0.62021102 0 0 1 0.260374,0.708347 2.3976321,2.16421 0 0 0 -0.10853,0.995601 2.5856816,2.333952 0 0 0 0.618391,1.191458 2.6797064,2.418823 0 0 0 1.135542,0.708346 1.808169,1.6321343 0 0 0 0.499042,0.08814 z m 0.151893,-8.389172 a 0.65849423,0.59438638 0 0 1 0.922158,0.84871 2.9762461,2.686493 0 0 0 -0.889613,1.808405 3.2836349,2.9639559 0 0 0 0.723255,1.958562 0.65853106,0.59441962 0 0 1 -1.027032,0.744253 4.5457368,4.1031856 0 0 1 -1.016193,-2.751779 4.2708952,3.8551013 0 0 1 1.280174,-2.611414 z m 14.675092,1.83452 -2.415717,0.293785 c -1.894968,0.228498 -1.945593,0.564717 -1.164461,-0.923789 l 1.229559,-2.347009 v 0 l 7.196506,-4.6124109 2.35786,2.9835409 -7.203747,4.609148 z m -1.949209,-2.467786 1.54779,1.95856 -1.587567,0.192591 c -1.244023,0.150157 -1.280193,0.368863 -0.766668,-0.610418 z"
       id="path149"
       style="stroke-width:0.343579" />
  </g>
  <style
     type="text/css"
     id="style20">.st0{fill-rule:evenodd;clip-rule:evenodd;}</style>
</svg>
