<?xml version="1.0" encoding="UTF-8" standalone="no"?>
<!-- Created with Inkscape (http://www.inkscape.org/) -->

<svg
   width="150"
   height="150"
   viewBox="0 0 39.687499 39.687501"
   version="1.1"
   id="svg5"
   inkscape:version="1.1 (c68e22c387, 2021-05-23)"
   sodipodi:docname="ic_06.svg"
   xmlns:inkscape="http://www.inkscape.org/namespaces/inkscape"
   xmlns:sodipodi="http://sodipodi.sourceforge.net/DTD/sodipodi-0.dtd"
   xmlns="http://www.w3.org/2000/svg"
   xmlns:svg="http://www.w3.org/2000/svg">
  <sodipodi:namedview
     id="namedview7"
     pagecolor="#ffffff"
     bordercolor="#666666"
     borderopacity="1.0"
     inkscape:pageshadow="2"
     inkscape:pageopacity="0.0"
     inkscape:pagecheckerboard="0"
     inkscape:document-units="mm"
     showgrid="false"
     inkscape:zoom="1.9955107"
     inkscape:cx="129.03965"
     inkscape:cy="58.631609"
     inkscape:window-width="1366"
     inkscape:window-height="746"
     inkscape:window-x="-8"
     inkscape:window-y="-8"
     inkscape:window-maximized="1"
     inkscape:current-layer="layer1"
     units="px"
     width="150px" />
  <defs
     id="defs2">
    <style
       id="style143">.cls-1{fill-rule:evenodd;}</style>
  </defs>
  <g
     inkscape:label="Layer 1"
     inkscape:groupmode="layer"
     id="layer1">
    <path
       d="m 8.786188,29.504851 c 0.3231035,-0.12896 0.698321,0.0031 0.8407649,0.295664 0.1424429,0.292516 -0.00355,0.632215 -0.326579,0.761175 C 8.6367956,30.8259 7.9488976,30.92026 7.2436285,30.857353 6.8892568,30.8259 6.5348851,30.75356 6.1770391,30.64347 c 0.013895,0.132105 0.031262,0.26421 0.052118,0.393169 0.062542,0.424623 0.1459181,0.858682 0.2536196,1.302177 0.038214,0.154122 0.00345,0.305099 -0.079899,0.427769 -0.3647935,0.663669 -0.545455,1.220397 -0.5801965,1.67962 -0.034742,0.481238 0.1077006,0.842955 0.3891132,1.100873 0.3092066,0.286228 0.7990746,0.474949 1.4174868,0.578746 0.9832085,0.166703 2.2408805,0.116371 3.6097278,-0.106944 0.489867,-0.07864 1.014475,-0.179284 1.55993,-0.301954 0.50029,-0.113233 1.000579,-0.239046 1.493921,-0.383733 0.792125,-0.229611 1.566878,-0.503257 2.279095,-0.820938 0.625362,-0.279936 1.195137,-0.591327 1.671106,-0.937315 0.274465,-0.198158 0.677476,-0.157268 0.896352,0.09121 0.218877,0.248483 0.173712,0.613344 -0.100754,0.811501 -0.548929,0.396315 -1.19861,0.75174 -1.900405,1.069422 -0.677474,0.301953 -1.410538,0.569309 -2.160972,0.795774 0.01389,0.383735 -0.0035,0.767467 -0.04518,1.154345 -0.05906,0.534712 -0.163289,1.059985 -0.316155,1.572679 -0.09033,0.308244 -0.441228,0.490675 -0.781702,0.408895 -0.34047,-0.08178 -0.541975,-0.39946 -0.451645,-0.707704 0.135495,-0.462368 0.232773,-0.924736 0.281413,-1.383957 0.02432,-0.229611 0.03821,-0.462368 0.04169,-0.695123 -0.201505,0.05031 -0.403012,0.0975 -0.601041,0.141541 -0.54893,0.12267 -1.101332,0.229611 -1.639838,0.314535 -1.5182316,0.24534 -2.9322435,0.301956 -4.0683168,0.106945 C 6.5314229,37.107172 5.8122568,36.814653 5.3084936,36.349142 4.7734623,35.858466 4.495523,35.204231 4.5545851,34.367567 4.5962797,33.798258 4.7977801,33.140879 5.1938427,32.385994 5.1035106,31.999115 5.0305543,31.59651 4.968018,31.181323 4.8985331,30.709519 4.8533717,30.231425 4.8359977,29.747041 v 0 -0.0093 c -0.00355,-0.02202 -0.010377,-0.04404 -0.010377,-0.06605 -0.093807,-0.883854 -0.1042328,-1.74568 -0.1181261,-2.616944 l -0.00355,-0.242192 -1.4904459,-0.05032 H 3.1996075 C 2.8035459,26.752652 2.4491742,26.648915 2.1538636,26.472772 1.8724519,26.306068 1.6466272,26.076457 1.4972348,25.799666 1.3478424,25.535455 1.27141,25.227211 1.2783576,24.890658 1.2887346,24.425146 1.4624914,23.903016 1.8411828,23.368306 L 3.4428035,20.40534 c 0.7851777,-1.453154 0.7782283,-1.645021 0.7434868,-2.409343 -0.013895,-0.342843 -0.034742,-0.780047 -0.010377,-1.437428 0.027799,-0.783192 0.1250718,-1.531786 0.3126808,-2.233201 0.1320202,-0.500112 0.3126808,-0.97506 0.5419798,-1.421701 l -2.9183517,-1.1512 c -0.3231035,-0.125814 -0.4690208,-0.465512 -0.330052,-0.75803 0.020857,-0.04089 0.041695,-0.07549 0.069485,-0.110082 v 0 C 8.8001186,2.3101156 16.651883,-0.05204619 23.287666,1.1337527 c 3.877243,0.6919783 7.33063,2.5980635 9.946728,5.1898364 2.612622,2.5854821 4.387954,5.8566519 4.916037,9.2819439 0.865085,5.633329 -1.632889,11.666122 -9.321365,15.748792 -0.06948,0.03459 -0.138968,0.05976 -0.211928,0.07234 0.0035,0.858681 0.06254,1.689056 0.170238,2.497411 0.215403,1.594696 0.628836,3.08874 1.212507,4.491568 0.125072,0.298814 -0.0417,0.629077 -0.371743,0.742309 -0.330052,0.113235 -0.694846,-0.03774 -0.819919,-0.336551 -0.621887,-1.494045 -1.059641,-3.076158 -1.285466,-4.758923 -0.225824,-1.676475 -0.243196,-3.456746 -0.0278,-5.35654 0.03474,-0.317682 0.347424,-0.547292 0.69832,-0.515839 0.350898,0.03145 0.604518,0.314537 0.569775,0.632217 -0.04864,0.43406 -0.08686,0.861827 -0.111179,1.283305 6.806019,-3.796443 9.02258,-9.253635 8.240877,-14.34282 C 36.402838,12.570258 34.742156,9.5161183 32.303245,7.1004857 29.860859,4.6848531 26.647195,2.9108725 23.044416,2.2660746 16.999273,1.1872178 9.8354064,3.3134779 3.3594367,10.988145 l 2.7759115,1.097729 c 0.038214,0.01257 0.072956,0.0283 0.1111804,0.04719 0.3022581,0.163557 0.3995369,0.518983 0.215402,0.792629 -0.3370005,0.506402 -0.5767213,1.069421 -0.7365373,1.673328 -0.1667627,0.622781 -0.2501445,1.292742 -0.2779375,1.997301 -0.020838,0.613345 -0.00345,1.031677 0.010377,1.355649 0.045166,0.990787 0.05558,1.242415 -0.8720337,2.959779 l -1.6050949,2.97236 c -0.013895,0.0283 -0.031262,0.05662 -0.048637,0.08493 -0.2536197,0.352279 -0.3682687,0.673105 -0.3752172,0.943605 -0.00345,0.144687 0.0278,0.273646 0.08338,0.377442 0.041685,0.09121 0.1146462,0.166704 0.201506,0.217029 0.1042207,0.06291 0.2362465,0.0975 0.3891132,0.103793 h 0.024319 l 2.0914878,0.06921 v 0 c 0.3369996,0.0093 0.6079895,0.257919 0.6149389,0.563018 0.007,0.257921 0.010377,0.528422 0.013895,0.795776 0.010377,0.773757 0.024319,1.544369 0.093807,2.318126 0.4481771,0.191867 0.8824555,0.311391 1.3028377,0.349135 0.4829178,0.04718 0.9554137,-0.01887 1.4140126,-0.201303 z m 9.634046,-8.014366 c 0,-0.786338 0.1077,-1.409118 0.316154,-1.874631 0.208454,-0.462367 0.594095,-0.924735 1.153446,-1.37452 0.559351,-0.449786 0.934568,-0.817792 1.118702,-1.100875 0.184135,-0.283081 0.277939,-0.581891 0.277939,-0.896426 0,-0.949897 -0.482919,-1.424845 -1.445282,-1.424845 -0.455124,0 -0.823392,0.128959 -1.097856,0.383732 -0.274465,0.254775 -0.416908,0.6102 -0.430804,1.059985 h -2.692531 c 0.01389,-1.072566 0.396062,-1.909231 1.146497,-2.513139 0.750434,-0.603907 1.775333,-0.909009 3.074694,-0.909009 1.309787,0 2.327736,0.289374 3.050377,0.86183 0.722639,0.575598 1.087435,1.383955 1.087435,2.434505 0,0.474949 -0.118126,0.924734 -0.350898,1.346211 -0.236248,0.424624 -0.642733,0.899572 -1.233352,1.409119 l -0.750434,0.647943 c -0.472495,0.405752 -0.767806,0.883846 -0.806021,1.437428 l -0.03821,0.512692 z m -0.270991,2.579191 c 0,-0.374297 0.13897,-0.682541 0.420382,-0.924734 0.281413,-0.242192 0.642733,-0.364861 1.08396,-0.364861 0.437754,0 0.799074,0.119523 1.080487,0.364861 0.281412,0.242193 0.420381,0.550437 0.420381,0.924734 0,0.368008 -0.135494,0.673108 -0.409959,0.912154 -0.274464,0.239046 -0.639258,0.361716 -1.087435,0.361716 -0.451649,0 -0.816445,-0.12267 -1.090908,-0.361716 -0.277938,-0.239046 -0.416908,-0.547292 -0.416908,-0.912154 z"
       id="path1119"
       style="stroke-width:0.330571" />
  </g>
  <style
     type="text/css"
     id="style20">.st0{fill-rule:evenodd;clip-rule:evenodd;}</style>
  <style
     type="text/css"
     id="style608">.st0{fill-rule:evenodd;clip-rule:evenodd;}</style>
  <style
     type="text/css"
     id="style721">.st0{fill-rule:evenodd;clip-rule:evenodd;}</style>
</svg>
