<?xml version="1.0" encoding="UTF-8" standalone="no"?>
<!-- Created with Inkscape (http://www.inkscape.org/) -->

<svg
   width="150"
   height="150"
   viewBox="0 0 39.687499 39.687501"
   version="1.1"
   id="svg5"
   inkscape:version="1.1 (c68e22c387, 2021-05-23)"
   sodipodi:docname="ic_04.svg"
   xmlns:inkscape="http://www.inkscape.org/namespaces/inkscape"
   xmlns:sodipodi="http://sodipodi.sourceforge.net/DTD/sodipodi-0.dtd"
   xmlns="http://www.w3.org/2000/svg"
   xmlns:svg="http://www.w3.org/2000/svg">
  <sodipodi:namedview
     id="namedview7"
     pagecolor="#ffffff"
     bordercolor="#666666"
     borderopacity="1.0"
     inkscape:pageshadow="2"
     inkscape:pageopacity="0.0"
     inkscape:pagecheckerboard="0"
     inkscape:document-units="mm"
     showgrid="false"
     inkscape:zoom="1.9955107"
     inkscape:cx="129.03965"
     inkscape:cy="58.631609"
     inkscape:window-width="1366"
     inkscape:window-height="746"
     inkscape:window-x="-8"
     inkscape:window-y="-8"
     inkscape:window-maximized="1"
     inkscape:current-layer="layer1"
     units="px"
     width="150px" />
  <defs
     id="defs2">
    <style
       id="style143">.cls-1{fill-rule:evenodd;}</style>
  </defs>
  <g
     inkscape:label="Layer 1"
     inkscape:groupmode="layer"
     id="layer1">
    <path
       class="st0"
       d="m 19.917029,34.944015 c 0.882787,0 1.597804,0.560701 1.597804,1.252963 0,0.692262 -0.715017,1.252964 -1.597804,1.252964 -0.882788,0 -1.597805,-0.560702 -1.597805,-1.252964 0,-0.692262 0.715017,-1.252963 1.597805,-1.252963 z M 9.5952152,22.116791 C 9.5712435,22.079211 9.543283,22.044751 9.5113336,22.010288 9.371532,21.831741 9.2317179,21.653195 9.0919106,21.449588 8.9521089,21.230319 8.8122939,21.02358 8.6884651,20.832503 8.5646362,20.625764 8.4448001,20.406495 8.3409425,20.187227 8.2530625,19.996149 8.1492059,19.776881 8.0453473,19.516891 7.8895624,19.147266 7.4501662,18.915469 6.9788138,18.915469 H 3.9549705 c -0.1038547,0 -0.2077142,-0.01252 -0.2796148,-0.04073 -0.067907,-0.02819 -0.1557868,-0.06891 -0.2077161,-0.122165 -0.067907,-0.05639 -0.1238279,-0.109629 -0.1557849,-0.162884 -0.035948,-0.05325 -0.051932,-0.137827 -0.051932,-0.219269 v -2.98832 c 0,-0.08144 0.015975,-0.150356 0.035948,-0.206739 0.035948,-0.05639 0.08788,-0.122165 0.1757572,-0.191077 0.067907,-0.05325 0.1398016,-0.0971 0.2077161,-0.109629 0.071905,-0.02819 0.1757571,-0.04073 0.2796147,-0.04073 h 2.7761847 c 0.5592324,0 1.0146062,-0.316373 1.1184638,-0.726719 0.067907,-0.231798 0.1398016,-0.451068 0.2077142,-0.645276 0.08788,-0.219263 0.1757571,-0.426002 0.2796147,-0.64527 0.1038547,-0.206739 0.2077142,-0.426008 0.3475235,-0.629614 0.1238289,-0.21927 0.2636381,-0.410347 0.3834733,-0.601424 0.2436602,-0.357095 0.1557811,-0.76744 -0.1917405,-1.03996 L 6.7151729,8.8322381 c -0.015975,-0.01253 -0.015975,-0.01253 -0.035948,-0.01253 C 6.6113181,8.7664571 6.5553961,8.7100739 6.5234391,8.6568228 6.4874912,8.6035718 6.4874912,8.5471886 6.4874912,8.4657458 c 0,-0.081443 0.015975,-0.1503558 0.051932,-0.2067392 0.035948,-0.068913 0.08788,-0.122164 0.175759,-0.1910771 L 9.3875096,5.9848764 c 0.08788,-0.068913 0.1557859,-0.1096342 0.2436649,-0.1378262 0.071905,-0.028192 0.1557869,-0.040722 0.2636381,-0.040722 0.1038547,0 0.1917364,0.01253 0.2636374,0.040722 0.0719,0.028192 0.155787,0.068913 0.227688,0.1221641 h 0.01597 l 1.973287,1.547411 c 0.383472,0.3007114 0.994633,0.3414327 1.434028,0.097105 0.227689,-0.1096342 0.455376,-0.219269 0.71502,-0.3289033 0.279614,-0.1096342 0.543252,-0.2192688 0.786917,-0.3163736 0.263638,-0.097105 0.543255,-0.191077 0.822869,-0.2725197 0.243665,-0.068913 0.523281,-0.1503557 0.854825,-0.2317984 0.471353,-0.122164 0.766947,-0.4667293 0.766947,-0.8363537 V 3.2534145 c 0,-0.081443 0.01597,-0.1628853 0.05193,-0.2192687 0.03595,-0.053251 0.08788,-0.1096341 0.139802,-0.1628855 0.0719,-0.05325 0.1398,-0.097105 0.207713,-0.1096342 0.06791,-0.028192 0.175759,-0.040722 0.279616,-0.040722 h 2.684311 0.03196 0.275622 c 0.103855,0 0.207714,0.01253 0.279615,0.040722 0.06791,0.01253 0.139801,0.056383 0.207714,0.1096342 0.05193,0.053251 0.103854,0.1096342 0.139801,0.1628855 0.03595,0.05325 0.05193,0.137826 0.05193,0.2192687 v 2.3712349 c 0,0.3696245 0.295594,0.7110573 0.766945,0.8363537 0.331545,0.081443 0.611162,0.1628855 0.854827,0.2317985 0.279615,0.081443 0.55923,0.1785474 0.822868,0.2725197 0.243665,0.097105 0.507303,0.2067392 0.786918,0.3163736 0.263638,0.1096341 0.487331,0.2192687 0.715018,0.3289031 0.435403,0.2474604 1.046562,0.2067391 1.434029,-0.097105 l 1.973288,-1.5474109 h 0.01598 c 0.06791,-0.053251 0.155785,-0.097105 0.227686,-0.1221641 0.06791,-0.028192 0.155787,-0.040722 0.263637,-0.040722 0.103856,0 0.191737,0.01253 0.263638,0.040722 0.08788,0.028192 0.155787,0.068913 0.243665,0.1378261 l 2.672323,2.0830532 c 0.08788,0.068913 0.139801,0.1221641 0.175758,0.191077 0.03595,0.053251 0.05193,0.1221641 0.05193,0.2067392 0,0.081443 0,0.137826 -0.03595,0.1910771 -0.03595,0.056383 -0.08788,0.1096342 -0.155787,0.1628853 -0.01597,0 -0.01597,0 -0.03595,0.01253 l -2.165007,1.7134281 c -0.347524,0.27252 -0.435403,0.685998 -0.191737,1.039961 0.123829,0.191077 0.263637,0.382154 0.383473,0.601423 0.139802,0.206739 0.243665,0.426008 0.347522,0.629614 0.103855,0.21927 0.191737,0.426009 0.279617,0.645278 0.06791,0.191076 0.139801,0.410345 0.207714,0.645276 0.103855,0.410345 0.559231,0.726718 1.118462,0.726718 h 2.776185 c 0.103855,0 0.207715,0.01252 0.279616,0.04073 0.06791,0.01252 0.139802,0.05325 0.207714,0.109629 0.08788,0.06891 0.139802,0.137827 0.175759,0.191077 0.01597,0.05325 0.03595,0.122164 0.03595,0.206739 V 18.3673 c 0,0.08143 -0.01597,0.162884 -0.05192,0.219267 -0.03595,0.05639 -0.08788,0.10963 -0.155786,0.162885 -0.05193,0.05325 -0.139802,0.0971 -0.207715,0.122165 -0.0719,0.02819 -0.175759,0.04073 -0.279616,0.04073 h -3.023848 c -0.471353,0 -0.906754,0.231798 -1.066535,0.601424 -0.103855,0.259989 -0.207713,0.479258 -0.295594,0.670335 -0.103855,0.219269 -0.227686,0.438538 -0.347522,0.645277 -0.123828,0.191077 -0.263637,0.397816 -0.403444,0.617085 -0.139802,0.206739 -0.279618,0.385286 -0.419425,0.5607 -0.03196,0.03445 -0.05992,0.06891 -0.08388,0.106505 h 2.644365 c 0.111841,-0.175415 0.223693,-0.36336 0.339533,-0.55757 0.139802,-0.247461 0.279617,-0.491789 0.403446,-0.739248 0.01597,-0.04073 0.05193,-0.0971 0.07191,-0.137827 h 2.236925 c 0.403446,0 0.786919,-0.05325 1.134443,-0.162885 0.347521,-0.109629 0.68306,-0.288182 0.962677,-0.507451 0.279614,-0.219268 0.507301,-0.466729 0.64711,-0.754911 0.139802,-0.288181 0.207714,-0.576364 0.207714,-0.889604 v -2.985188 c 0,-0.300711 -0.08788,-0.601422 -0.227687,-0.877074 -0.139805,-0.272522 -0.347526,-0.519983 -0.62714,-0.739252 l -0.01597,-0.01252 c -0.27964,-0.219279 -0.595206,-0.397826 -0.942728,-0.507461 -0.347523,-0.122163 -0.734991,-0.178547 -1.134441,-0.178547 h -1.905382 c 0,-0.04073 -0.01597,-0.06891 -0.03595,-0.109629 -0.103855,-0.25999 -0.207714,-0.519981 -0.331544,-0.767442 -0.139802,-0.259989 -0.263637,-0.50745 -0.403446,-0.739248 -0.01597,-0.0282 -0.05193,-0.06891 -0.06791,-0.109635 l 1.573839,-1.246699 c 0.295592,-0.2067387 0.507303,-0.4510668 0.663088,-0.726719 0.139802,-0.2725197 0.227687,-0.5763635 0.227687,-0.8896045 0,-0.3163736 -0.06791,-0.601423 -0.227687,-0.8896047 C 35.30389,7.3130188 35.092179,7.0655584 34.812565,6.8462896 h -0.01597 L 32.124251,4.7632365 C 31.844635,4.5439676 31.529069,4.3810823 31.161573,4.2557859 30.794079,4.1336219 30.426584,4.0772385 30.027134,4.0772385 c -0.383474,0 -0.766947,0.053251 -1.134442,0.1785474 -0.367495,0.1096342 -0.683061,0.2881817 -0.962677,0.5074506 L 26.567887,5.8188588 26.464032,5.7781368 C 26.184414,5.6559735 25.868847,5.5463391 25.537303,5.4210428 25.221737,5.3114083 24.910165,5.2017739 24.594599,5.1046692 24.542666,5.0921396 24.47077,5.0639479 24.418841,5.0482858 v -1.75415 c 0,-0.3163735 -0.06791,-0.617085 -0.207716,-0.8896047 C 24.071324,2.128879 23.843631,1.8688888 23.564015,1.6496201 23.268422,1.4303513 22.952855,1.2518039 22.601339,1.1421695 22.237839,1.0325353 21.870343,0.9792842 21.466898,0.9792842 H 20.088791 19.781215 18.40311 c -0.403446,0 -0.766947,0.0532512 -1.134442,0.1628853 -0.347522,0.1096342 -0.663088,0.2881818 -0.962677,0.5074506 -0.279615,0.2192687 -0.507302,0.4792589 -0.64711,0.754911 -0.139801,0.2725197 -0.207715,0.5763636 -0.207715,0.8896047 v 1.75415 c -0.05192,0.01253 -0.123829,0.040722 -0.175757,0.056383 -0.315567,0.097105 -0.627138,0.2067392 -0.942705,0.3163736 -0.331545,0.1221639 -0.647111,0.2317982 -0.926726,0.3570948 L 13.302123,5.8188592 11.939996,4.7632369 C 11.66038,4.543968 11.344813,4.3654206 10.977318,4.2557863 10.609823,4.1336223 10.22635,4.0772389 9.8428767,4.0772389 c -0.4034455,0 -0.7669456,0.05325 -1.1344394,0.1785474 C 8.3409416,4.3779503 8.0253751,4.543968 7.7457594,4.7632369 L 5.0734285,6.8462896 H 5.0574538 C 4.7778381,7.0655584 4.5701229,7.3130188 4.4103433,7.5855386 4.2545574,7.8705879 4.1826569,8.1587698 4.1826569,8.4720108 c 0,0.3163735 0.08788,0.617085 0.2276864,0.8896047 0.1557859,0.2725197 0.3674948,0.5199801 0.663088,0.7267195 l 1.5738376,1.2467 c -0.015975,0.04072 -0.051932,0.08145 -0.067907,0.109633 -0.1398159,0.231799 -0.2636371,0.479259 -0.4034464,0.73925 -0.1238289,0.24746 -0.2276864,0.50745 -0.331544,0.76744 -0.015975,0.04073 -0.035948,0.06891 -0.035948,0.10963 H 3.9030431 c -0.4034455,0 -0.7869187,0.05639 -1.1344403,0.178548 -0.3475226,0.109629 -0.66309,0.288181 -0.9427047,0.50745 l -0.015975,0.01253 C 1.5303065,13.978784 1.3225923,14.226244 1.1827849,14.498765 1.038982,14.774417 0.95110197,15.078261 0.95110197,15.378972 v 2.985188 c 0,0.316373 0.0679069,0.601423 0.20771513,0.889604 0.1398017,0.288182 0.3674948,0.535643 0.6471114,0.754911 0.2796147,0.219268 0.6111587,0.397815 0.9626768,0.50745 0.3475216,0.109641 0.7349895,0.162886 1.1344404,0.162886 h 2.2369255 c 0.015975,0.04073 0.051932,0.0971 0.071905,0.137826 0.1238289,0.247461 0.2636372,0.491789 0.4034455,0.739249 0.1198275,0.197343 0.2276874,0.385287 0.3395333,0.557569 h 2.640372 z m 4.3260528,-2.772183 c -0.331544,0.0093 -0.587191,0.06265 -0.758956,0.15662 -0.09987,0.05325 -0.171763,0.119032 -0.215703,0.197343 -0.05193,0.0877 -0.0759,0.194209 -0.07191,0.316373 0.01193,0.357095 0.251654,0.826956 0.715017,1.368863 l 0.008,0.0063 1.501936,1.876314 c 0.603171,0.751778 1.234302,1.519219 2.021221,2.07992 0.754963,0.541908 1.669706,0.9084 2.884037,0.911532 1.310198,0.0031 2.272876,-0.379021 3.051806,-0.949121 0.810885,-0.595157 1.450007,-1.409584 2.077145,-2.22401 l 1.693672,-2.186424 c 0.315566,-0.563833 0.431406,-0.942856 0.359506,-1.165257 -0.04394,-0.131561 -0.227686,-0.197341 -0.547248,-0.209872 -0.06791,-0.0031 -0.135816,-0.0031 -0.207714,-0.0031 -0.07589,0.0031 -0.155787,0.0063 -0.235675,0.01252 -0.04394,0.0031 -0.08788,0 -0.131816,-0.0063 -0.151792,0.0063 -0.307577,-0.0031 -0.463364,-0.01879 l 0.579205,-2.01414 c -4.302133,0.532455 -7.521708,-1.973473 -12.071456,-0.50124 l 0.327552,2.371235 c -0.179754,0.0031 -0.355512,0 -0.515294,-0.0188 z m 13.297725,-0.422876 c 0.41543,0.100241 0.683061,0.306977 0.794908,0.642145 0.119827,0.372757 -0.01193,0.895869 -0.411435,1.610058 v 0 c -0.008,0.01252 -0.01598,0.02506 -0.02396,0.03759 l -1.713646,2.211482 c -0.659101,0.852015 -1.330178,1.707163 -2.224949,2.36497 l -0.04394,0.03133 c 0.08388,0.0971 0.179753,0.203607 0.275622,0.316373 0.295592,0.341434 0.635126,0.732985 0.950693,1.036829 1.86144,0.908399 5.955814,1.152727 7.557614,1.851255 4.0744,1.782342 2.588442,6.111334 2.884035,9.224949 -0.08788,0.736117 -0.619149,1.158992 -1.665711,1.221641 h -1.130446 l 1.242292,-7.383092 c 0.09587,-0.576364 -0.423417,-1.046226 -1.066533,-1.046226 h -8.735991 c 0.215703,-1.205977 0.37149,-2.358705 0.447384,-3.229515 -0.40744,-0.353963 -0.842841,-0.855148 -1.218326,-1.287421 -0.08388,-0.09398 -0.163774,-0.187945 -0.23967,-0.27252 -0.786919,0.413478 -1.721634,0.670336 -2.892025,0.667204 -1.306206,-0.0031 -2.324805,-0.353962 -3.167647,-0.889605 -0.235676,0.554437 -0.583199,1.318745 -0.918736,1.685237 -0.02796,0.03133 -0.06391,0.05952 -0.103855,0.08143 0.143803,0.899002 0.343527,2.05173 0.579204,3.24831 H 7.4461658 c -0.6391212,0 -1.1624018,0.469862 -1.0665335,1.046226 l 1.2422926,7.383092 H 6.4874836 c -1.0465613,-0.06265 -1.5778312,-0.485523 -1.6657103,-1.22164 0.051932,-3.298429 -1.5458761,-7.28912 2.8840369,-9.224949 1.6217713,-0.711059 5.8040228,-0.952255 7.6295138,-1.888845 0.279616,-0.410345 0.587193,-1.149595 0.774933,-1.588131 0.01997,-0.05012 -0.01193,0.03133 0.01997,-0.04073 -0.671072,-0.563829 -1.21832,-1.231033 -1.745596,-1.88884 L 12.8827,21.747158 c -0.551242,-0.642144 -0.834854,-1.231038 -0.854826,-1.713428 -0.008,-0.225534 0.03995,-0.432273 0.147803,-0.613953 0.111841,-0.187945 0.28361,-0.347698 0.515292,-0.469862 0.107856,-0.05639 0.231681,-0.106503 0.3635,-0.147223 -0.09587,-1.018033 -0.135816,-2.299189 -0.07191,-3.370473 0.03196,-0.253727 0.09587,-0.510584 0.183749,-0.764308 0.551242,-1.541146 2.240919,-2.653153 4.170267,-3.176265 0.934716,-0.253725 0.575209,-0.858281 1.521909,-0.817559 2.244914,0.09711 5.704161,1.231037 7.034332,2.433883 1.869431,1.682104 1.386096,3.75576 1.326176,5.813753 z M 16.945114,29.230497 c -0.758959,-0.676601 -0.82287,-1.384526 0,-2.133172 0.950693,0.187944 1.821496,0.510583 2.624392,0.945988 0.171764,-0.05952 0.375483,-0.08458 0.571215,-0.07204 0.834852,-0.463597 1.897392,-0.651542 2.828113,-0.999239 1.110474,0.848883 0.990639,1.628854 -0.09987,2.352441 -0.61116,-0.10963 -1.190363,-0.278784 -1.745601,-0.501187 -0.01598,0.112767 -0.05193,0.234932 -0.119843,0.366493 l 0.28361,1.851254 h -2.264873 l 0.28361,-1.851254 c -0.175759,-0.234931 -0.243665,-0.435405 -0.23967,-0.601423 -0.659094,0.310108 -1.374113,0.510583 -2.121084,0.642145 z"
       id="path610"
       style="stroke-width:0.353729" />
  </g>
  <style
     type="text/css"
     id="style20">.st0{fill-rule:evenodd;clip-rule:evenodd;}</style>
  <style
     type="text/css"
     id="style608">.st0{fill-rule:evenodd;clip-rule:evenodd;}</style>
</svg>
