<?xml version="1.0" encoding="UTF-8" standalone="no"?>
<!-- Created with Inkscape (http://www.inkscape.org/) -->

<svg
   width="893.70081"
   height="500"
   viewBox="0 0 236.45833 132.29166"
   version="1.1"
   id="svg5"
   inkscape:version="1.1 (c68e22c387, 2021-05-23)"
   sodipodi:docname="skills.svg"
   xmlns:inkscape="http://www.inkscape.org/namespaces/inkscape"
   xmlns:sodipodi="http://sodipodi.sourceforge.net/DTD/sodipodi-0.dtd"
   xmlns="http://www.w3.org/2000/svg"
   xmlns:svg="http://www.w3.org/2000/svg">
  <sodipodi:namedview
     id="namedview7"
     pagecolor="#ffffff"
     bordercolor="#666666"
     borderopacity="1.0"
     inkscape:pageshadow="2"
     inkscape:pageopacity="0.0"
     inkscape:pagecheckerboard="0"
     inkscape:document-units="mm"
     showgrid="false"
     inkscape:zoom="0.49887767"
     inkscape:cx="903.027"
     inkscape:cy="400.89989"
     inkscape:window-width="1284"
     inkscape:window-height="730"
     inkscape:window-x="55"
     inkscape:window-y="0"
     inkscape:window-maximized="0"
     inkscape:current-layer="layer1"
     inkscape:snap-global="false"
     units="px"
     height="500px" />
  <defs
     id="defs2">
    <rect
       x="1146.5737"
       y="260.58493"
       width="208.46794"
       height="52.116985"
       id="rect19374" />
    <circle
       id="react-path-1"
       cx="120"
       cy="120"
       r="120" />
    <path
       d="m 12,160 c 0,66.27417 53.72583,120 120,120 66.27417,0 120,-53.72583 120,-120 h 12 V 0 H 0 v 160 z"
       id="react-path-2" />
    <path
       d="M 124,144.61095 V 163 h 4 v 0 c 39.7645,0 72,32.2355 72,72 v 9 H 0 v -9 c 0,-39.7645 32.235498,-72 72,-72 v 0 h 4 V 144.61095 C 58.762634,136.42237 46.372225,119.68701 44.305139,99.881238 38.480311,99.057787 34,94.05211 34,88 V 74 C 34,68.054007 38.324573,63.118073 44,62.165917 V 56 56 C 44,25.072054 69.072054,0 100,0 v 0 0 c 30.92795,0 56,25.072054 56,56 v 6.165917 c 5.67543,0.952156 10,5.88809 10,11.834083 v 14 c 0,6.05211 -4.48031,11.057787 -10.30514,11.881238 C 153.62778,119.68701 141.23737,136.42237 124,144.61095 Z"
       id="react-path-3" />
    <path
       d="M 133.96047,0.29491611 C 170.93647,3.3249982 200,34.294286 200,72.051723 V 81 H 0 V 72.051723 C 0,33.952563 29.591985,2.7649812 67.045406,0.21952641 67.01526,0.59311455 67,0.96922719 67,1.3476251 67,13.210718 81.998461,22.827654 100.5,22.827654 c 18.50154,0 33.5,-9.616936 33.5,-21.4800289 0,-0.35295601 -0.0133,-0.70392372 -0.0395,-1.05270899 z"
       id="react-path-609" />
    <rect
       id="react-path-555"
       x="0"
       y="0"
       width="264"
       height="280" />
    <path
       d="m 65.180219,77.737299 c 2.182966,-1.632766 15.226292,-2.258648 17.57761,-3.64785 0.733817,-0.434063 1.303243,-0.87373 1.741949,-1.309442 0.439036,0.435712 1.008792,0.875379 1.742609,1.309442 2.350988,1.389202 15.394313,2.015084 17.577283,3.64785 2.21036,1.653529 3.8239,5.447384 3.6473,8.413651 -0.21193,3.559191 -4.10548,12.051943 -13.794643,13.030152 -2.114634,-2.352909 -5.435462,-3.870649 -9.172549,-3.870649 -3.736426,0 -7.057584,1.51774 -9.172219,3.870649 C 65.638731,98.202893 61.745176,89.710141 61.53325,86.15095 c -0.176605,-2.966267 1.436935,-6.760122 3.646969,-8.413651 m 37.961421,17.169082 c 0.001,-6.59e-4 0.003,-0.0013 0.004,-0.0016 -0.002,3.3e-4 -0.003,9.89e-4 -0.004,0.0016 m -37.296265,-0.0049 c 0.004,0.0016 0.01122,0.0043 0.0165,0.0063 -0.0053,-0.002 -0.01089,-0.0043 -0.0165,-0.0063 M 144.86259,55.985334 c -0.3882,-5.954946 -1.58482,-11.833428 -2.6286,-17.699056 C 141.95274,36.707235 140.42371,26 139.73478,26 c -0.23239,9.109406 -1.03289,18.080386 -2.06512,27.139365 -0.30864,2.708202 -0.63181,5.417063 -0.8444,8.134822 -0.17165,2.195368 0.13435,4.847869 -0.39744,6.971387 -0.67869,2.706883 -4.07973,5.232824 -6.72484,6.165221 -6.60007,2.326542 -12.10518,-7.303026 -17.742,-10.119661 C 104.64327,60.634715 92.063739,59.76399 84.581643,64.529792 76.936147,59.76399 64.356614,60.634715 57.038909,64.291134 51.402415,67.107769 45.896971,76.737337 39.297238,74.410795 36.65213,73.478398 33.250427,70.952457 32.572397,68.245574 32.040272,66.122056 32.346277,63.469555 32.174954,61.274187 31.962368,58.556428 31.638868,55.847567 31.330223,53.139365 30.298323,44.080386 29.497495,35.109406 29.265434,26 28.57618,26 27.046817,36.707235 26.7659,38.286278 c -1.043783,5.865628 -2.240073,11.74411 -2.628274,17.699056 -0.399093,6.119408 0.07724,12.182128 1.331963,18.177942 0.599135,2.864426 1.298952,5.712371 2.049274,8.540872 0.833838,3.142595 -0.319869,9.262004 0.05348,12.487984 0.706419,6.103588 3.581939,18.007548 6.810999,23.258828 1.560722,2.53814 3.390149,4.12278 5.433151,6.16819 1.966089,1.96894 2.787383,5.0209 4.909609,7.11772 3.955945,3.90822 9.719529,6.23443 15.639581,6.80626 5.31167,4.50708 14.139922,7.45687 24.134095,7.45687 9.994833,0 18.822752,-2.94979 24.134762,-7.45687 5.91939,-0.57183 11.6833,-2.89804 15.63958,-6.80626 2.1219,-2.09682 2.94319,-5.14878 4.90961,-7.11772 2.04267,-2.04541 3.8721,-3.63005 5.43315,-6.16819 3.22873,-5.25128 6.10458,-17.15524 6.81067,-23.258828 0.37334,-3.22598 -0.78036,-9.345389 0.0538,-12.487984 0.75033,-2.828501 1.44981,-5.676446 2.04928,-8.540872 1.25406,-5.995814 1.73072,-12.058534 1.33196,-18.177942 z"
       id="react-path-556" />
    <path
       d="m 185.83168,73.928751 c 1.75719,0.988615 3.14853,10.899175 3.21586,14.688905 0.0421,2.338555 0.0798,11.256354 -2.39349,10.485473 -0.75304,-0.234706 -1.90237,-4.955881 -2.06584,-7.719033 -0.16347,-2.763151 -1.73314,-12.164093 -4.14145,-16.48937 -0.55027,-0.988389 -2.12598,-2.723833 -1.44521,-3.559919 0.84451,-1.036747 1.66465,-0.435217 2.69563,-0.02011 1.11522,0.449453 3.93722,2.503331 4.1345,2.614056 z m 0.80506,-2.972163 c -0.74608,0.962214 -5.84091,-1.738895 -7.96557,-2.912616 -17.84559,-9.859916 -21.30961,-12.995289 -49.42546,-12.586127 -28.11586,0.409162 -47.378232,13.582178 -48.461728,14.929596 -0.753824,0.937442 -1.716205,3.440481 -2.507573,10.413099 -0.791369,6.972618 0.218797,19.47725 -2.645923,19.46208 -2.438977,-0.0129 -2.969595,-23.785585 -1.916755,-33.216228 0.161645,-1.447907 0.784635,-4.037996 0.333691,-5.340512 -0.394123,-1.137631 -2.322045,-1.135314 -2.0143,-3.030815 0.349785,-2.157726 2.525347,-1.085981 3.472886,-2.117664 1.794577,-1.954435 -0.973813,-2.41697 -1.432968,-4.126729 -0.682491,-2.541461 1.28977,-3.197023 3.066611,-3.99959 1.966349,-0.887326 1.710826,-0.107936 3.306698,-1.846168 -2.131552,-1.562423 -2.902721,-3.691013 0.01609,-4.832949 1.23952,-0.485049 4.464437,0.156938 5.435623,-0.571795 0.253225,-0.190047 0.353398,-1.279339 0.509405,-1.502164 1.550877,-2.218647 1.168249,-3.824774 1.010928,-6.315578 -0.129404,-2.038201 -0.111997,-3.909202 2.328285,-4.112823 1.628388,-0.135748 2.952644,1.194579 4.411559,1.586261 1.618534,0.434724 1.010598,0.75191 2.278691,-0.120849 2.226143,-1.533286 0.711065,-4.520728 2.476411,-6.302996 2.422549,-2.445776 4.010539,1.139287 5.955539,1.40979 4.22238,0.58835 2.86725,-3.699952 5.36698,-5.271314 2.98779,-1.876629 3.27681,2.250762 5.14299,2.397767 1.61722,0.126808 4.52881,-2.993733 5.93846,-3.57513 4.18263,-1.725982 6.25507,3.130805 10.2367,2.511332 2.88926,-0.449623 3.6693,-0.816804 6.27675,0.827067 2.53093,1.595532 3.1323,0.45492 5.99824,0.432075 2.02481,-0.01523 3.26498,1.67665 4.95873,1.853122 0.84474,0.0884 1.65335,-0.791641 2.55983,-0.736349 3.2374,0.196338 3.44202,4.382663 6.014,5.535194 2.34996,1.053204 5.11277,-0.426446 7.445,-0.700259 5.69049,-0.667812 1.79359,4.647206 1.95419,7.819397 2.2337,0.521139 4.5009,-1.563747 6.72441,-1.180012 3.50146,0.604574 2.17984,4.233341 1.36827,6.679779 2.42616,-0.0437 8.7594,-2.736805 10.33129,0.707544 0.81059,1.775977 -1.07792,4.146926 -1.04705,5.95237 0.0433,2.541461 1.91084,4.644226 2.57166,7.049608 0.8917,3.247018 2.1625,11.950002 -0.0726,14.832586 z"
       id="react-path-557" />
    <path
       d="m 101.4284,98.168569 c -2.513563,2.294051 -5.19118,3.325741 -8.575456,2.604291 -0.582366,-0.12403 -2.956605,-4.538289 -8.85311,-4.538289 -5.896504,0 -8.270409,4.414259 -8.853109,4.538289 -3.384276,0.72145 -6.061893,-0.31024 -8.575459,-2.604291 -4.725089,-4.312965 -8.654644,-10.260383 -6.293436,-16.749388 1.230554,-3.382239 3.231918,-7.095447 6.872796,-8.17327 3.88779,-1.150369 9.346267,-0.002 13.264128,-0.78764 1.269312,-0.254746 2.6559,-0.707405 3.58508,-1.458271 0.929181,0.750866 2.316103,1.203525 3.584747,1.458271 3.918195,0.785634 9.376672,-0.362729 13.264459,0.78764 3.64088,1.077823 5.64224,4.791031 6.87313,8.17327 2.36121,6.489005 -1.56834,12.436423 -6.29377,16.749388 M 140.08103,26 c -3.41034,8.400253 -2.09326,18.858035 -2.72436,27.675872 -0.51263,7.167322 -2.01955,17.909881 -8.38381,22.538659 -3.2545,2.367083 -9.1785,6.345368 -13.43099,5.235663 -2.92733,-0.763809 -3.23969,-9.160098 -7.08659,-12.303214 -4.36356,-3.564665 -9.812295,-5.130937 -15.306132,-4.889108 -2.37061,0.104396 -7.165011,0.07962 -9.149215,1.902586 -1.984203,-1.822967 -6.778268,-1.79819 -9.148878,-1.902586 -5.494174,-0.241829 -10.942908,1.324443 -15.306473,4.889108 -3.846898,3.143116 -4.158918,11.539405 -7.086249,12.303214 -4.25249,1.109705 -10.176491,-2.86858 -13.431325,-5.235663 C 32.66241,71.585753 31.156165,60.843194 30.642864,53.675872 30.012093,44.858035 31.329173,34.400253 27.918834,26 c -1.659057,0 -0.5648,16.128869 -0.5648,16.128869 v 20.356252 c 0.03164,15.288084 9.581061,38.170329 30.753978,46.907879 5.178115,2.13682 16.907299,5.607 25.891921,5.607 8.984622,0 20.713807,-3.13981 25.891927,-5.27663 21.17291,-8.73756 30.72233,-31.950165 30.75431,-47.238249 V 42.128869 c 0,0 1.09392,-16.128869 -0.56514,-16.128869"
       id="react-path-598" />
    <filter
       inkscape:label="Bloom"
       inkscape:menu="Bevels"
       inkscape:menu-tooltip="Soft, cushion-like bevel with matte highlights"
       style="color-interpolation-filters:sRGB"
       id="filter19578">
      <feGaussianBlur
         result="result1"
         in="SourceAlpha"
         stdDeviation="2.2"
         id="feGaussianBlur19554" />
      <feSpecularLighting
         result="result0"
         specularExponent="18.10000038"
         specularConstant="2"
         surfaceScale="5"
         id="feSpecularLighting19558">
        <feDistantLight
           azimuth="225"
           elevation="24"
           id="feDistantLight19556" />
      </feSpecularLighting>
      <feComposite
         result="result6"
         operator="in"
         in2="SourceAlpha"
         id="feComposite19560" />
      <feMorphology
         radius="5.7"
         operator="dilate"
         id="feMorphology19562" />
      <feGaussianBlur
         result="result11"
         stdDeviation="5.7"
         id="feGaussianBlur19564" />
      <feDiffuseLighting
         surfaceScale="5"
         result="result3"
         diffuseConstant="2"
         in="result1"
         id="feDiffuseLighting19568">
        <feDistantLight
           elevation="25"
           azimuth="225"
           id="feDistantLight19566" />
      </feDiffuseLighting>
      <feBlend
         result="result7"
         mode="multiply"
         in="result3"
         in2="SourceGraphic"
         id="feBlend19570" />
      <feComposite
         in="result7"
         operator="in"
         in2="SourceAlpha"
         result="result91"
         id="feComposite19572" />
      <feBlend
         result="result9"
         mode="lighten"
         in="result6"
         in2="result91"
         id="feBlend19574" />
      <feComposite
         in="result11"
         in2="result9"
         id="feComposite19576" />
    </filter>
  </defs>
  <g
     inkscape:label="Layer 1"
     inkscape:groupmode="layer"
     id="layer1">
    <path
       fill="#444444"
       d="m 170.26198,50.466302 z m -11.48147,-16.49711 2.08674,21.63307 9.36313,2.40233 9.38965,-2.40606 2.08874,-21.62934 z m 18.59294,4.94771 -0.70573,7.31144 v 0 l -0.48883,5.04467 -0.0427,0.44811 -5.88734,1.50896 -5.87923,-1.50896 -0.40227,-4.16641 h 2.88103 l 0.20477,2.11613 3.19981,0.79735 0.008,-0.002 h 0.002 l 3.19169,-0.79639 0.33487,-3.44061 h -6.70004 l -0.057,-0.59587 -0.13125,-1.34518 -0.0681,-0.71168 h 7.21131 l 0.26289,-2.71673 H 163.3229 l -0.057,-0.59679 -0.13125,-1.34519 -0.0681,-0.71168 h 14.37778 l -0.0693,0.71168 z"
       id="path2752"
       style="fill:#0066ff;stroke-width:0.979116" />
    <path
       fill="#444444"
       d="m 33.540132,70.773372 -11.06156,-11.13466 c -0.63688,-0.64108 -1.67026,-0.64108 -2.30709,0 l -2.29703,2.31221 2.91365,2.93291 c 0.67734,-0.23076 1.45346,-0.0756 1.99375,0.46695 0.54251,0.54609 0.69525,1.33528 0.46053,2.01931 l 2.80803,2.82664 c 0.67959,-0.23632 1.4636,-0.0838 2.00611,0.46357 0.75816,0.76321 0.75816,2.00013 0,2.7633 -0.75817,0.76321 -1.987,0.76321 -2.74631,0 -0.57057,-0.57438 -0.711,-1.4178 -0.42241,-2.1256 l -2.61937,-2.63668 v 6.93766 c 0.18424,0.0927 0.35957,0.21494 0.51334,0.36964 0.75816,0.76317 0.75816,2.00013 0,2.76445 -0.75821,0.76318 -1.98815,0.76318 -2.74516,0 -0.75821,-0.76432 -0.75821,-2.00128 0,-2.76445 0.18764,-0.18888 0.40415,-0.33118 0.63572,-0.42648 v -7.0021 c -0.23136,-0.0949 -0.44817,-0.23631 -0.63572,-0.42647 -0.57401,-0.57776 -0.71215,-1.42687 -0.41774,-2.13581 l -2.87209,-2.89218 -7.5851604,7.63412 c -0.63687,0.64223 -0.63687,1.6824 0,2.32349 l 11.0626704,11.13465 c 0.63687,0.64109 1.66911,0.64109 2.30709,0 l 11.0099,-11.08265 c 0.63688,-0.64104 0.63688,-1.6824 0,-2.32345 z"
       id="path3735"
       style="fill:#ff2a2a;stroke-width:1.12693" />
    <path
       fill="#444444"
       d="m 100.19281,98.411873 2.299,24.750587 10.31707,2.74889 10.34597,-2.75317 2.30122,-24.746307 h -25.26434 z m 4.77631,5.873677 -0.0758,-0.81485 h 7.92004 v 3.03511 h -4.46319 l 0.28851,3.10876 h 4.17455 v 3.03506 h -7.06641 l -0.77782,-8.36517 z m 15.11894,6.14493 -0.7433,7.9914 -0.048,0.51262 -6.48793,1.72577 -6.47912,-1.72577 -0.44351,-4.76623 h 3.1749 l 0.22491,2.42102 3.52489,0.91204 3.52699,-0.91419 0.36686,-3.93641 h -3.88362 v -3.03511 h 7.34046 l -0.0772,0.81486 z m 0.57277,-6.14493 -0.14367,1.53888 -0.0636,0.68244 h -7.62911 v -3.03508 h 7.91218 z"
       id="path3974"
       style="fill:#ff7f2a;stroke-width:1.09091" />
    <path
       fill="#444444"
       d="m 64.412861,67.063403 c -0.1528,-0.0348 -0.30021,-0.0827 -0.44908,-0.12674 -0.0385,-0.0116 -0.0754,-0.0232 -0.112,-0.0348 -0.14549,-0.0448 -0.28905,-0.092 -0.4328,-0.14221 -0.0192,-0.008 -0.0396,-0.0154 -0.0589,-0.0232 -0.12817,-0.046 -0.25556,-0.0931 -0.3818,-0.14221 -0.0346,-0.0154 -0.0712,-0.0271 -0.107,-0.0421 -0.13856,-0.0553 -0.27596,-0.11245 -0.4124,-0.17157 -0.0269,-0.0116 -0.055,-0.0232 -0.0824,-0.0386 -0.117,-0.0533 -0.23208,-0.10743 -0.34716,-0.16269 -0.0346,-0.0154 -0.0662,-0.0309 -0.10084,-0.0479 -0.0908,-0.0441 -0.18012,-0.092 -0.26903,-0.1368 -0.06,-0.0309 -0.12008,-0.0614 -0.17936,-0.0939 -0.10892,-0.0595 -0.21591,-0.11979 -0.32291,-0.18201 -0.0346,-0.0193 -0.0724,-0.039 -0.10892,-0.0603 -0.14164,-0.0827 -0.28212,-0.16964 -0.41956,-0.25774 -0.0385,-0.0232 -0.0754,-0.051 -0.11316,-0.0757 -0.10084,-0.0645 -0.20052,-0.131 -0.29828,-0.1994 -0.0308,-0.0232 -0.0643,-0.046 -0.0958,-0.0676 -0.0947,-0.0676 -0.18936,-0.13486 -0.28212,-0.20442 -0.0427,-0.0309 -0.0835,-0.0634 -0.12508,-0.0951 -0.0855,-0.0653 -0.17127,-0.13177 -0.25441,-0.20056 -0.0385,-0.0309 -0.0766,-0.0614 -0.11392,-0.092 -0.107,-0.0889 -0.21284,-0.17699 -0.31753,-0.26896 -0.0115,-0.008 -0.0231,-0.0193 -0.0346,-0.0271 -0.11316,-0.0993 -0.224,-0.20132 -0.33408,-0.3045 -0.0308,-0.0309 -0.0631,-0.0603 -0.0935,-0.09 -0.0816,-0.0777 -0.16088,-0.1565 -0.2394,-0.2361 -0.0308,-0.0309 -0.0631,-0.0622 -0.0935,-0.0939 -0.0997,-0.10318 -0.19744,-0.20751 -0.29443,-0.31301 -0.004,-0.004 -0.0115,-0.0116 -0.0154,-0.0155 -0.10199,-0.11129 -0.20052,-0.22606 -0.29828,-0.3416 -0.0269,-0.0309 -0.052,-0.0614 -0.0785,-0.0931 -0.0724,-0.0881 -0.14471,-0.17698 -0.21476,-0.26702 -0.0269,-0.0309 -0.0531,-0.0653 -0.0785,-0.0981 -0.0847,-0.11052 -0.16704,-0.21988 -0.24748,-0.33117 -2.23728,-3.06311 -3.04075,-7.28874 -1.25255,-10.75884 l -1.58452,2.01826 c -2.03056,2.93022 -1.77801,6.74284 -0.22709,9.85607 0.0385,0.0746 0.0754,0.14839 0.11393,0.22181 0.0231,0.046 0.047,0.0939 0.0724,0.13989 0.0154,0.0271 0.0308,0.0541 0.045,0.0808 0.0269,0.0502 0.0539,0.097 0.0804,0.1453 0.0477,0.085 0.0978,0.16964 0.14779,0.25465 0.0269,0.046 0.0562,0.0931 0.0847,0.13911 0.0562,0.0912 0.11315,0.18008 0.17204,0.27011 0.0231,0.0386 0.0477,0.0769 0.0731,0.11361 0.0816,0.12057 0.16396,0.24113 0.24863,0.36092 0.002,0.003 0.004,0.008 0.008,0.008 0.0115,0.0193 0.0269,0.0386 0.0416,0.0572 0.0735,0.1024 0.14972,0.20326 0.22708,0.30257 0.0269,0.0387 0.057,0.0734 0.0854,0.10936 0.0681,0.087 0.13856,0.17273 0.20976,0.25852 0.0269,0.0309 0.0531,0.0645 0.0804,0.0962 0.0958,0.11245 0.19244,0.2249 0.29213,0.33542 0.002,0.002 0.004,0.004 0.008,0.004 0.004,0.004 0.008,0.008 0.0115,0.0116 0.0966,0.10627 0.19668,0.2106 0.29636,0.31378 0.0308,0.0309 0.0631,0.0645 0.0947,0.0962 0.0774,0.0788 0.15703,0.1565 0.23747,0.23301 0.0308,0.0309 0.0643,0.0622 0.0966,0.0931 0.10699,0.10125 0.21476,0.20056 0.32484,0.29755 0.002,0.001 0.003,0.003 0.004,0.004 0.0192,0.0155 0.0389,0.0309 0.057,0.0479 0.0966,0.0839 0.19552,0.16771 0.2952,0.2504 0.0408,0.0309 0.0816,0.0653 0.1224,0.0982 0.0816,0.0653 0.1628,0.12984 0.24555,0.19322 0.0439,0.0348 0.0877,0.0676 0.13125,0.10008 0.0908,0.0676 0.1832,0.13409 0.27596,0.19824 0.0346,0.0232 0.0662,0.0479 0.10083,0.0715 0.008,0.008 0.0192,0.0116 0.0269,0.0193 0.0877,0.0614 0.1782,0.11863 0.26787,0.17775 0.0389,0.0271 0.0762,0.0522 0.11624,0.0777 0.13856,0.0881 0.27788,0.17505 0.41956,0.25852 0.0389,0.0232 0.0774,0.044 0.11623,0.0653 0.10392,0.0603 0.20861,0.11979 0.31484,0.17775 0.057,0.0309 0.11623,0.0603 0.17396,0.09 0.0743,0.039 0.14972,0.0796 0.22516,0.11747 0.0154,0.008 0.0346,0.0193 0.052,0.0271 0.0308,0.0155 0.0612,0.0271 0.0927,0.0448 0.11816,0.0564 0.23709,0.11245 0.35756,0.16655 0.0269,0.0116 0.05,0.0232 0.0754,0.0348 0.1374,0.0603 0.27596,0.11863 0.41648,0.17389 0.0346,0.0155 0.0674,0.0271 0.10199,0.0398 0.12932,0.0502 0.26057,0.10008 0.39308,0.14607 0.0154,0.008 0.0308,0.0116 0.05,0.0193 0.14471,0.051 0.29135,0.0981 0.43788,0.14413 0.0346,0.0116 0.0704,0.0232 0.10584,0.0309 0.14972,0.0448 0.29828,0.0993 0.45316,0.12791 9.819797,1.79842 12.672117,-5.9249 12.672117,-5.9249 -2.39512,3.13371 -6.647677,3.95981 -10.677197,3.04066 z m -3.53768,-7.99118 c 0.22015,0.31686 0.46436,0.69316 0.7556,0.94774 0.10584,0.1167 0.21707,0.23108 0.32984,0.34353 0.0269,0.0309 0.0581,0.0572 0.0866,0.0858 0.11008,0.10743 0.22092,0.21176 0.336,0.31378 0.004,0.003 0.008,0.008 0.0154,0.0116 0.001,10e-4 0.002,0.002 0.003,0.003 0.12739,0.11245 0.25979,0.22104 0.39308,0.32614 0.0308,0.0232 0.0593,0.0471 0.0897,0.0707 0.13433,0.10318 0.27096,0.20442 0.41144,0.30141 0.004,0.003 0.008,0.008 0.0115,0.008 0.062,0.0429 0.12509,0.0827 0.18744,0.12481 0.0308,0.0193 0.0589,0.041 0.0897,0.0595 0.0997,0.0645 0.20168,0.12791 0.30445,0.18703 0.0154,0.008 0.0269,0.0155 0.0427,0.0232 0.0885,0.0522 0.17935,0.1024 0.2698,0.15148 0.0308,0.0193 0.0643,0.0348 0.0958,0.0502 0.062,0.0309 0.12508,0.0653 0.1882,0.0982 0.008,0.004 0.0192,0.008 0.0269,0.0116 0.12933,0.0645 0.2598,0.12559 0.39308,0.18394 0.0269,0.0116 0.0581,0.0232 0.0866,0.0348 0.107,0.046 0.214,0.09 0.32176,0.13177 0.0458,0.0193 0.0928,0.0348 0.13741,0.051 0.0989,0.0386 0.19667,0.0707 0.29636,0.10318 0.0446,0.0155 0.0885,0.027 0.13355,0.0429 0.14164,0.044 0.28096,0.10009 0.42768,0.12482 7.581517,1.26067 9.332037,-4.59981 9.332037,-4.59981 -1.5774,2.28203 -4.6334,3.36989 -7.894117,2.52026 -0.14472,-0.039 -0.28712,-0.0796 -0.42972,-0.12481 -0.0439,-0.0116 -0.0854,-0.0271 -0.12932,-0.0421 -0.10084,-0.0309 -0.20052,-0.0676 -0.30059,-0.10434 -0.0458,-0.0193 -0.0905,-0.0348 -0.13548,-0.051 -0.10892,-0.0421 -0.21708,-0.0858 -0.32292,-0.13099 -0.0308,-0.0116 -0.0589,-0.0232 -0.0877,-0.0386 -0.13356,-0.0584 -0.26595,-0.11979 -0.39616,-0.18394 -0.0674,-0.0309 -0.1324,-0.0676 -0.1986,-0.10124 -0.0385,-0.0193 -0.0762,-0.039 -0.11392,-0.0595 -0.0847,-0.046 -0.1682,-0.0939 -0.25056,-0.1422 -0.0192,-0.0116 -0.0408,-0.0232 -0.06,-0.0348 -0.10277,-0.0603 -0.20361,-0.1225 -0.30445,-0.18587 -0.0308,-0.0193 -0.0612,-0.041 -0.0916,-0.0614 -0.0662,-0.0429 -0.1324,-0.087 -0.19667,-0.131 -0.13933,-0.097 -0.27596,-0.19824 -0.40936,-0.30064 -0.0308,-0.0232 -0.062,-0.0479 -0.0928,-0.0726 -1.42668,-1.13176 -2.55804,-2.67765 -3.09676,-4.43109 -0.56412,-1.81786 -0.44192,-3.85965 0.53464,-5.51594 l -1.1996,1.70027 c -1.46844,2.12151 -1.389,4.96177 -0.24324,7.20597 0.19244,0.37637 0.40832,0.74128 0.64968,1.08886 z m 7.99188,-2.62456 c 0.062,0.0232 0.12508,0.044 0.1882,0.0653 0.0269,0.008 0.055,0.0193 0.0835,0.027 0.0897,0.0271 0.1782,0.0614 0.26981,0.0777 4.186357,0.81181 5.321797,-2.15729 5.624237,-2.59387 -0.99492,1.43754 -2.666,1.78312 -4.716917,1.28316 -0.16204,-0.0398 -0.34024,-0.0982 -0.49696,-0.15457 -0.20053,-0.0715 -0.39712,-0.15341 -0.5896,-0.24538 -0.36449,-0.17582 -0.7118,-0.38851 -1.0336,-0.63285 -1.83504,-1.39766 -2.97556,-4.06515 -1.778,-6.23778 l -0.64868,0.89666 c -0.8656,1.27906 -0.95012,2.86789 -0.35025,4.27985 0.6334,1.49986 1.93176,2.67564 3.44604,3.23391 z"
       id="path4283"
       style="fill:#0088aa;stroke-width:1.02037" />
    <path
       fill="#444444"
       d="M 84.123169,29.215231 100.30178,44.995427 114.2304,30.715131 98.051787,14.934941 Z m 21.109521,6.045906 c 0.27924,0.68281 0.20558,1.39541 -0.0949,2.0106 -0.51184,0.89688 -1.28489,1.47758 -2.12791,1.64901 -0.56924,0.10991 -1.19316,0.0205 -1.78873,-0.20872 0.10266,-0.60684 0.20287,-1.2143 0.30553,-1.82114 0.0144,-0.006 0.10008,0.0236 0.21288,0.0589 0.39803,0.11833 0.70069,0.18035 1.06017,0.0724 0.31411,-0.14417 0.86513,-0.59417 0.59591,-1.23874 -0.11709,-0.34742 -0.92159,-1.0574 -1.75337,-1.8687 -1.30739,-1.275202 -2.588151,-2.534196 -3.911567,-3.825026 l 1.302696,-1.33559 c 1.389581,1.35536 2.789751,2.70708 4.170291,4.067592 0.85389,0.82587 1.68949,1.515314 2.02801,2.439314 z m 4.9773,-5.958286 c 1.34691,2.21927 -1.11995,4.865296 -3.31744,4.739556 -0.49287,-0.0542 -0.77268,-0.06 -1.2231,-0.24467 0.17808,-0.899274 0.17808,-0.899274 0.34919,-1.775926 0.78961,0.202984 1.32986,0.205484 1.91491,-0.1668 0.73002,-0.56747 1.11879,-1.47579 0.18564,-2.09745 -0.79284,-0.47684 -2.11063,0.56088 -3.59016,0.69914 -1.42849,0.2121 -3.13718,-1.07879 -3.34703,-2.60216 -0.10169,-0.53903 0.0332,-1.15721 0.31089,-1.67256 0.11606,-0.15938 0.23277,-0.32143 0.34877,-0.48075 0.76829,-0.82664 1.50326,-1.09544 2.33403,-1.00812 0.219,0.0123 0.42855,0.0529 0.85964,0.16531 -0.10902,0.73333 -0.11078,0.72892 -0.25972,1.78657 -0.45022,-0.18169 -0.86451,-0.16027 -1.17708,-0.0146 -0.47247,0.23813 -0.77869,0.82184 -0.44174,1.33301 0.10064,0.16145 0.23046,0.27466 0.49895,0.43582 0.51678,0.22102 1.155,-0.10754 1.80884,-0.32283 1.80595,-0.69423 2.8396,-0.51498 3.67973,0.10055 0.73325,0.51934 1.02334,1.0462 1.06662,1.12487 z"
       id="path4518"
       style="fill:#ffcc00;stroke-width:0.67845" />
    <path
       fill="#444444"
       d="m 220.66248,69.30654 c -0.0498,0.12271 -0.18592,0.0675 -0.18592,0.0675 l -0.13614,-0.0552 c -0.13614,-0.0552 -0.0864,-0.17793 -0.17274,-0.35586 0,0 -0.0864,-0.17793 -0.0366,-0.30064 0.0498,-0.12271 0.0498,-0.12271 0.18591,-0.0675 l 0.22251,0.23315 c 0.0864,0.17793 0.17274,0.35587 0.12297,0.47858 z m -1.95186,-2.22005 c 0.24875,-0.61327 0.12571,-1.09166 -0.2824,-1.2572 0,0 -0.0498,0.12271 -0.18592,0.0675 l -0.0995,0.24542 0.40842,0.16566 c -0.0995,0.24542 -0.0132,0.42335 -0.1126,0.6685 z m 5.01144,1.31855 c 0.27229,0.11045 0.30888,0.41109 0.29556,0.83405 l 0.27228,0.11045 c -0.0864,-0.17793 -0.0366,-0.30064 0.0132,-0.42335 0.0498,-0.1227 0.0996,-0.24541 0.0132,-0.42334 -0.0864,-0.17793 -0.17272,-0.35586 -0.30887,-0.41109 0,0 -0.18591,0.0675 -0.32205,0.0123 -0.0498,0.12271 0.0864,0.17793 0.0366,0.30064 z m -4.87834,0.30657 c -0.13614,-0.0552 -0.13614,-0.0552 -0.0864,-0.17793 0.0498,-0.12271 0.0995,-0.24542 0.28546,-0.31291 0.27228,0.11045 0.45819,0.0429 0.45819,0.0429 0.13615,0.0552 0.0864,0.17794 0.0864,0.17794 -0.0498,0.12271 -0.23569,0.19019 -0.60743,0.32495 z m -1.44706,-0.72985 c -0.44476,-0.4662 -0.43165,-0.88925 -0.18289,-1.50252 0.14931,-0.36813 0.24875,-0.61328 0.62053,-0.74812 0.23568,-0.1902 0.55774,-0.20246 0.82971,-0.0922 0.27228,0.11044 0.35865,0.28837 0.53103,0.64409 -0.0132,0.42335 -0.0262,0.84633 -0.17547,1.21433 l -0.0996,0.24542 0.13614,0.0552 0.0498,-0.12271 c 0.13615,0.0552 0.23569,-0.1902 0.43464,-0.68067 0.14932,-0.36813 0.29851,-0.73594 0.17547,-1.21433 -0.12297,-0.47857 -0.29555,-0.83405 -0.83986,-1.05484 -0.40842,-0.16566 -0.91604,-0.0858 -1.20129,0.22691 -0.47129,0.38018 -0.67498,0.72603 -0.92373,1.3393 -0.19901,0.49062 -0.20741,1.05854 0.13811,1.77001 0.18591,-0.0675 0.32204,-0.0123 0.50796,-0.0798 z m 9.99324,24.18994 c 0.13614,0.0552 0.15625,0.006 0.20102,-0.10475 0.10932,-0.26951 0.10239,-0.64328 -0.16142,-1.16473 -0.2591,-0.5338 -0.84475,-1.0428 -1.62171,-1.47142 -0.13061,-0.0688 -0.26676,-0.12406 -0.26676,-0.12406 -0.12693,-0.0779 -0.12693,-0.0779 -0.26307,-0.13315 -0.13062,-0.0688 -0.39368,-0.20198 -0.51943,-0.28213 0.87129,-0.97549 1.41494,-1.92563 1.77296,-2.80828 0.49748,-1.22649 0.57345,-2.1955 0.32779,-3.15215 -0.24581,-0.95668 -0.64086,-1.54545 -1.27152,-1.94405 -0.18592,0.0675 -0.18592,0.0675 -0.23569,0.1902 0.58085,0.5214 1.06229,1.28789 1.17202,2.18938 0.0602,1.02421 -0.10244,1.81527 -0.45069,2.67382 -0.2785,0.68663 -0.82776,1.64989 -1.89928,2.72904 -0.62376,-0.0249 -1.35199,0.20775 -2.04895,0.75401 -0.0448,0.11044 -0.0697,0.1718 0.0665,0.22702 0,0 0.18093,-0.0552 0.4015,-0.20815 0.35671,-0.0977 0.57765,-0.25155 0.93402,-0.34929 0.49285,-0.0425 0.80962,-0.0426 1.21785,0.12298 0.6804,0.27598 1.32614,0.6374 1.66468,0.97477 0.47941,0.38077 0.68223,0.66202 0.7384,0.91424 0.0615,0.23929 0.12795,0.46631 0.19967,0.68032 -0.0643,0.15861 0.0416,0.28836 0.0416,0.28836 z m -5.30368,-22.8591 c -0.0864,-0.17792 0.0132,-0.42334 0.11262,-0.66849 0.199,-0.49061 0.29851,-0.73594 0.72003,-0.99344 0.37183,-0.13498 0.69362,-0.14735 0.96576,-0.037 0.40842,0.16566 0.58085,0.5214 0.75353,0.87696 -0.0132,0.42336 0.0235,0.72373 -0.12572,1.09167 -0.24875,0.61327 -0.67029,0.87078 -1.26425,0.77271 0,0 0.0864,0.17792 0.22251,0.23315 0.27228,0.11044 0.35866,0.28836 0.58086,0.52139 0.43465,-0.68071 0.76978,-1.1161 1.01852,-1.72934 0.29851,-0.73593 0.36137,-1.28176 0.23833,-1.76015 -0.2591,-0.53379 -0.61749,-0.82179 -1.1618,-1.04257 -0.40842,-0.16567 -0.8662,-0.20845 -1.37398,-0.12862 -0.42159,0.25769 -0.65717,0.44761 -0.80642,0.81556 -0.24875,0.61327 -0.3116,1.15911 -0.23833,1.76015 0.13615,0.0552 0.22251,0.23315 0.35865,0.28837 z m 0.83693,2.62478 c -2.21675,0.3863 -3.7765,0.32497 -4.86512,-0.11659 -0.95258,-0.38639 -1.75579,-1.14088 -2.32355,-2.08513 0.0366,0.30064 0.0733,0.60106 0.15966,0.77894 l 0.51794,1.0671 c 0.34531,0.71138 0.92622,1.23266 1.60661,1.50864 0.95254,0.38636 2.24016,0.3373 3.9492,0.0307 l 1.52317,-0.2392 c 0.37182,-0.13498 0.74331,-0.26983 0.89255,-0.63778 0.0498,-0.12271 0.0995,-0.24542 -0.0366,-0.30064 -0.0366,-0.30064 -0.56773,-0.94445 -1.77923,-1.86434 -1.02571,-0.98737 -1.87873,-1.61906 -2.42304,-1.83985 -0.40842,-0.16566 -1.18816,-0.19614 -2.33971,-0.092 -1.01543,0.15946 -1.75875,0.42928 -1.95775,0.91989 0,0 0.0864,0.17794 0.12297,0.47857 0.56773,0.94447 1.23492,1.64357 2.05141,1.97475 1.08862,0.44157 2.64837,0.50289 4.9149,-0.006 l -0.0996,0.24542 c 0.13614,0.0552 0.0864,0.17793 0.0864,0.17793 z m -6.91956,26.04116 c 0.17021,1.14306 0.93495,1.99239 2.02357,2.43396 0.27228,0.11044 0.55905,0.18445 0.86124,0.22072 0.29239,0.0609 0.59887,0.0862 0.77496,0.0428 0.1708,-0.0302 0.34197,-0.0614 0.51774,-0.10385 0.30694,0.025 0.33183,-0.0363 0.49285,-0.0425 l 3.0444,-0.8642 c 0.70286,-0.17008 1.38616,-0.29197 2.18703,-0.31299 0.66376,-0.0737 1.28762,-0.049 1.60467,-0.0493 0.44842,0.067 0.77989,0.0305 1.13152,-0.0549 0.21081,-0.12884 0.44151,-0.30677 0.56104,-0.60145 0.14434,-0.35586 -0.0187,-0.73571 -0.21118,-1.04207 -0.19283,-0.30632 -0.4101,-0.55164 -0.64722,-0.74837 -0.23724,-0.19681 -0.42964,-0.50347 -0.70376,-0.99964 -0.14306,-0.42903 -0.23607,-0.98072 -0.13804,-1.6131 l 0.15211,-0.76589 c -0.002,-0.38609 0.0975,-0.63123 0.0165,-0.82229 0.0147,-0.0363 0.0201,-0.0496 -0.11604,-0.1048 -0.13613,-0.0552 -0.45321,-0.0552 -0.67353,0.0978 -0.3567,0.0977 -0.72331,0.22052 -1.09494,0.35547 -0.23569,0.19019 -0.73306,0.24455 -1.09011,0.34339 -0.49285,0.0425 -0.94567,-0.0126 -1.21784,-0.12297 -1.08863,-0.44156 -1.52362,-0.93185 -1.7178,-1.62512 -0.11319,-0.50266 -0.065,-1.01222 0.008,-1.582 -0.18786,-0.31859 -0.2792,-0.48425 -0.55118,-0.59457 -0.6804,-0.27598 -1.21104,0.25096 -1.73342,1.53882 l -1.54712,3.81426 c -0.0448,0.11043 -0.28048,0.30063 -0.43463,0.68067 -0.29025,0.32472 -0.46538,0.75648 -0.6634,1.24468 l -0.82441,1.25077 -0.009,0.0227 z m -19.46371,-8.65519 c 1.19685,0.68023 2.50939,1.62697 3.93467,2.83946 1.42729,1.20767 2.32039,1.8976 2.68727,2.04641 0.95253,0.38636 1.89646,0.32678 2.84685,-0.14337 0.23274,-0.18292 0.34587,-0.46184 0.47659,-0.78411 0.47019,-1.1592 0.28959,-2.93939 -0.54106,-5.34602 l -0.47324,-1.49142 c -0.096,-0.31046 -0.18252,-0.76021 -0.28774,-1.35881 -0.0913,-0.59433 -0.20095,-1.0673 -0.30068,-1.40742 -0.0628,-0.35467 -0.23412,-0.75171 -0.48648,-1.18315 -0.2388,-0.42606 -0.57298,-0.77432 -0.98259,-1.05531 -0.61099,-0.13298 -1.07521,-0.12227 -1.36053,0.0335 -0.28515,0.15584 -0.498,0.36934 -0.63497,0.6274 -0.14465,0.24089 -0.29673,0.37979 -0.46742,0.40974 -0.16584,0.018 -0.42165,-0.0144 -0.75985,-0.0801 -0.0681,-0.0276 -0.1906,-0.0773 -0.37261,-0.13527 l -0.36707,-0.14889 c -0.72175,-0.29276 -1.24104,-0.41814 -1.5483,-0.39991 -0.4847,0.21779 -0.82588,0.54997 -1.00001,0.97927 -0.0794,0.19588 -0.15917,0.55016 -0.24,1.05927 -0.0746,0.49795 -0.17027,0.88735 -0.27465,1.14468 -0.20388,0.50265 -0.57063,0.93925 -1.11484,1.30381 -0.55448,0.38982 -0.89072,0.70996 -1.00388,0.98892 -0.057,0.53142 0.70518,1.22984 2.27191,2.0936 z m 9.0534,-9.31288 c 0.34338,-0.84656 0.96693,-1.67886 1.91755,-2.57878 0.93736,-0.90529 1.7255,-1.44258 2.40079,-1.73999 0.0246,-0.13294 -0.045,-0.16117 -0.15444,-0.20555 l -0.0864,-0.17793 c -0.54413,0.20799 -1.36871,0.87318 -2.43718,1.86808 -1.01874,0.87229 -1.73153,1.76785 -2.03539,2.51696 -0.22389,0.55197 -0.26875,1.09107 -0.16524,1.61758 0.13457,0.52669 0.61768,1.40718 1.45763,2.61887 l 1.0988,1.43153 c 1.04914,1.82584 1.52757,2.99033 1.32857,3.48095 -0.10434,0.25723 -0.34489,0.45942 -0.86768,0.57646 -0.39174,0.18406 -0.81801,0.18211 -1.13154,0.0549 -0.0252,-0.0102 -0.0495,0.006 -0.075,0.0691 -0.006,0.0136 0.0318,0.31247 0.12304,0.90688 0.28758,0.93027 1.37275,1.77091 3.00569,2.43326 2.99372,1.2143 5.75344,1.0482 8.41796,-0.44203 0.24874,-0.61323 0.40287,-0.99322 0.3316,-1.20837 l 0.18398,-0.45357 c 0.32338,-0.79725 0.70338,-1.34326 1.13466,-1.6248 0.43137,-0.28178 0.77795,-0.35523 1.18622,-0.18963 0.27228,0.11044 0.50966,0.30622 0.70712,0.60067 0.51902,-0.88874 0.85265,-1.71125 1.15114,-2.44715 0.45262,-1.11588 0.82575,-2.03578 0.90172,-3.00478 0.16236,-0.79116 0.13884,-1.51488 0.0659,-2.1158 -0.12296,-0.47858 -0.24581,-0.95667 -0.36875,-1.43503 -0.12296,-0.47857 -0.10991,-0.90159 -0.23265,-1.37986 0.0629,-0.54584 0.076,-0.969 0.32472,-1.58227 -0.15967,-0.77893 -0.18289,-1.50254 -0.34237,-2.28134 -0.0235,-0.72372 -0.0468,-1.44733 -0.11998,-2.04834 l -1.57291,0.36181 c -1.70906,0.30664 -2.94692,0.23302 -3.89946,-0.15334 -0.81649,-0.33118 -1.44706,-0.72985 -1.65635,-1.38601 l -0.56768,-0.94444 c -0.14932,0.36813 -0.48441,0.80338 -0.95568,1.18355 l -1.45484,1.12388 c -0.72994,0.70373 -1.13159,1.11214 -1.32218,1.46332 -0.15449,0.22313 -0.29379,0.45215 -0.32153,0.4409 l -1.76684,1.42581 c -1.8482,1.39286 -3.09699,2.87055 -3.66912,4.28107 -0.11467,0.28269 -0.20842,0.58619 -0.27196,0.90353 -0.45822,-0.62832 -0.54294,-1.27746 -0.26443,-1.96409 z m 5.03715,15.55338 c -1.76902,-0.71755 -3.21756,-1.05318 -4.34328,-1.01256 l 0.0147,-0.0363 c -0.97889,0.45991 -1.89475,0.53092 -2.9567,0.10018 -0.66704,-0.27056 -1.61975,-0.9285 -2.84639,-1.96811 -1.24982,-1.02085 -2.37701,-1.87299 -3.38873,-2.54237 -0.0984,-0.0716 -0.32527,-0.21287 -0.69721,-0.42993 -0.35923,-0.21024 -0.68972,-0.40996 -0.97901,-0.59294 -0.26292,-0.17117 -0.55635,-0.38655 -0.86396,-0.6431 -0.3009,-0.23532 -0.52168,-0.472 -0.66385,-0.7075 -0.12522,-0.23126 -0.14725,-0.44184 -0.0677,-0.63799 0.0794,-0.19588 0.20984,-0.38699 0.39374,-0.57263 0.1413,-0.0993 0.29185,-0.19546 0.43641,-0.27972 0.14936,-0.0961 0.28182,-0.18525 0.38505,-0.28628 0.12597,-0.0775 0.22591,-0.16611 0.33015,-0.26673 0.0993,-0.0883 0.19918,-0.17695 0.28047,-0.30063 0.075,-0.11249 0.15404,-0.22332 0.20381,-0.34603 0.0498,-0.12271 0.14451,-0.51271 0.29951,-1.20599 0.14909,-0.6817 0.26001,-1.10863 0.32975,-1.28056 0.219,-0.53992 0.52928,-0.91401 0.95264,-1.09932 0.42344,-0.18549 0.7749,-0.22901 1.07376,-0.10779 l 1.56491,0.63475 c 0.12253,0.0497 0.33851,0.0659 0.68339,0.0348 0.17425,-0.15742 0.32183,-0.28387 0.43481,-0.40893 0.12765,-0.11917 0.19913,-0.21879 0.24695,-0.25708 0.0549,-0.063 0.1145,-0.1245 0.16561,-0.17522 0.0891,-0.0633 0.19718,-0.13437 0.33198,-0.19455 -0.0596,-0.16709 -0.0482,-0.34874 0.0312,-0.54462 0.0546,-0.13453 0.10434,-0.25724 0.15941,-0.32064 0.17899,-0.4413 0.66357,-0.97295 1.48664,-1.59693 l 0.7901,-0.57989 c 0.66356,-0.50245 1.16147,-0.87181 1.57794,-1.27421 0.42993,-0.39695 0.97347,-1.03344 1.6439,-1.90416 0.56559,-0.77045 1.43162,-1.41899 2.59631,-1.94637 l 1.46835,-0.68992 c 1.00556,-0.44909 1.71724,-0.8746 2.17506,-1.26022 0.45766,-0.38569 0.84256,-0.94374 1.04156,-1.43436 0.0996,-0.24542 0.32989,-1.00884 0.67817,-2.29587 0.36137,-1.28177 0.79079,-2.53588 1.23854,-3.63976 0.34825,-0.85856 0.67818,-1.43891 1.10442,-1.98018 0.42625,-0.54129 0.98709,-1.02792 1.64907,-1.33074 0.60742,-0.32495 1.35053,-0.59486 2.26647,-0.50903 0.91604,0.0858 1.91835,0.34942 3.00696,0.79098 0.40842,0.16566 0.81649,0.33118 1.17494,0.61947 0.40842,0.16567 0.90276,0.50908 1.48361,1.03048 0.44476,0.4662 0.88962,0.93217 1.14859,1.46569 0.39499,0.58891 0.55454,1.36759 0.71405,2.14646 -0.0262,0.84634 -0.0527,1.69261 -0.31465,2.72902 -0.11262,0.66849 -0.36136,1.28172 -0.57347,2.19554 -0.29849,0.73589 -0.36136,1.28173 -0.5106,1.64967 -0.0132,0.42335 -0.21212,0.91382 -0.32472,1.58227 -0.0629,0.54583 -0.12572,1.09166 -0.003,1.57 0.0733,0.60105 0.14631,1.202 0.35553,1.85819 0.15968,0.77889 0.45509,1.61288 0.70088,2.56961 0.72718,1.72324 1.13251,3.45879 1.13006,5.02755 0.18283,1.50251 -0.0556,3.26261 -0.74678,4.96649 -0.34337,0.84656 -0.81264,1.61263 -1.4083,2.29943 0.27228,0.11045 0.36842,0.26429 0.43499,0.49029 0.0668,0.22611 0.0533,0.65037 -0.0442,1.2816 l -0.23209,0.96308 c 0.0268,0.32473 0.0582,0.63832 0.37702,1.02391 0.1825,0.33178 0.37987,0.62619 0.72865,0.93829 0.22251,0.23315 0.56095,0.57049 0.74378,0.90102 0.17274,0.35585 0.20453,0.66831 0.0953,0.93768 -0.16923,0.41721 -0.42974,0.66863 -0.79128,0.77824 -0.37182,0.13498 -0.71354,0.19644 -1.16666,0.14157 -0.32206,0.0123 -0.96576,0.037 -1.92264,0.0519 -0.82769,0.0871 -1.68656,0.25131 -2.57815,0.49598 l -1.78416,0.49179 c -0.73844,0.25783 -1.42175,0.37972 -1.91484,0.42339 -0.4982,0.0557 -1.08673,-0.0555 -1.63104,-0.27628 l -0.91253,-0.48499 c -0.98428,-0.6988 -1.46564,-1.46548 -1.57048,-2.379 -2.08065,-1.12127 -3.80191,-1.95652 -4.89054,-2.39809 z"
       id="path4659"
       style="fill:#1a1a1a;stroke-width:1.3668" />
    <path
       fill="#444444"
       d="m 17.312504,14.7775 c 0.109481,-0.10943 0.159415,-0.25828 0.128959,-0.39052 L 16.625472,10.8547 c -0.01295,-0.062 -0.04256,-0.11414 -0.08603,-0.15391 -0.0042,-0.004 -0.01958,-0.0179 -0.02347,-0.0215 -0.04576,-0.0375 -0.09925,-0.0657 -0.164602,-0.0754 L 12.625952,9.9816697 c -0.139082,-0.0237 -0.293561,0.0296 -0.403473,0.1394003 l -3.9148829,3.92106 c -0.0541,0.0541 -0.07768,0.13016 -0.06318,0.19436 0.01649,0.0652 0.06819,0.11251 0.136669,0.12502 l 2.2099419,0.37359 c 0.141666,0.0211 0.29239,-0.0306 0.402302,-0.14047 l 1.831441,-1.83056 c 0.108608,-0.10856 0.261922,-0.16285 0.400987,-0.13917 l 0.943214,0.15814 c 0.06845,0.0125 0.128121,0.0421 0.177073,0.0869 0.04659,0.0426 0.08129,0.0994 0.09745,0.16424 l 0.205891,0.89307 c 0.03087,0.13182 -0.01903,0.28066 -0.127641,0.38922 l -1.831442,1.83057 c -0.109476,0.10942 -0.156033,0.25721 -0.127782,0.3916 l 0.488113,2.0946 c 0.01649,0.0652 0.06897,0.11323 0.136669,0.12503 0.06767,0.0118 0.145739,-0.0145 0.200261,-0.069 l 3.923288,-3.91337 z m 17.513136,5.70631 c -0.01649,-0.0652 -0.0682,-0.11251 -0.138186,-0.12201 -0.06767,-0.0118 -0.144562,0.0156 -0.199084,0.0701 l -3.881007,3.87915 c -0.03928,0.0392 -0.09328,0.0558 -0.140257,0.0487 -0.0449,-0.008 -0.08801,-0.0387 -0.09634,-0.0881 l -0.204174,-0.88481 c -0.03087,-0.13182 -0.135438,-0.22748 -0.27452,-0.25114 l -3.731056,-0.61852 c -0.139083,-0.0237 -0.293562,0.0296 -0.402169,0.13809 l -2.920864,2.91947 c -0.109475,0.10942 -0.158542,0.25742 -0.127649,0.38922 l 0.810235,3.53803 c 0.03087,0.13181 0.135439,0.22746 0.274521,0.25113 l 3.733251,0.61836 c 0.140345,0.0224 0.292384,-0.0306 0.400986,-0.13916 l 7.280831,-7.27736 c 0.11079,-0.11074 0.158389,-0.26174 0.12552,-0.39534 l -0.512086,-2.0767 z m -7.638818,7.2326 c -0.02619,0.0261 -0.06495,0.0424 -0.101101,0.0336 l -1.281058,-0.21312 c -0.03267,-0.005 -0.06088,-0.0306 -0.06854,-0.0627 l -0.279351,-1.21434 c -0.01038,-0.0346 0.0041,-0.0715 0.03062,-0.0981 l 1.002846,-1.00237 c 0.02619,-0.0261 0.06495,-0.0424 0.101106,-0.0336 l 1.282236,0.21194 c 0.03267,0.005 0.06088,0.0307 0.06854,0.0627 l 0.278216,1.21556 c 0.0065,0.031 -0.004,0.0714 -0.03063,0.0981 z m 9.367219,6.598536 c 0.137911,0.0226 0.291517,-0.0297 0.400993,-0.13916 l 0.707427,-0.70709 c 0.109481,-0.10942 0.157238,-0.25611 0.127648,-0.38923 L 36.993265,29.55587 c -0.02961,-0.13308 -0.134175,-0.22874 -0.27452,-0.25113 l -3.731051,-0.61853 c -0.139082,-0.0237 -0.292391,0.0306 -0.400998,0.13916 L 29.66697,31.7437 c -0.109482,0.10943 -0.158221,0.2594 -0.126175,0.392246 l 0.824539,3.49593 c 0.02984,0.1291 0.132443,0.22297 0.268281,0.24762 l 2.209388,0.40398 c 0.06845,0.0125 0.146519,-0.0137 0.203085,-0.0681 0.05656,-0.0543 0.07855,-0.13104 0.06537,-0.19654 l -0.824763,-3.55131 c -0.01608,-0.0648 0.0087,-0.13986 0.06406,-0.19524 L 33.265887,31.3576 c 0.0541,-0.0541 0.132552,-0.08 0.201123,-0.0698 l 1.167674,0.19557 c 0.06845,0.0125 0.12057,0.0601 0.136675,0.12502 l 0.255988,1.106816 c 0.01608,0.0648 -0.0087,0.13985 -0.06406,0.19522 l -0.72012,0.71978 c -0.0541,0.0541 -0.07768,0.13016 -0.06406,0.19522 0.01649,0.0652 0.06897,0.11323 0.137846,0.1261 l 2.239907,0.36352 z M 23.143549,16.85762 c 0.139081,0.0237 0.243644,0.11932 0.274521,0.25113 l 0.811411,3.53686 c 0.03087,0.13181 -0.01817,0.2798 -0.127647,0.38923 l -2.922041,2.92064 c -0.109476,0.10943 -0.262687,0.16131 -0.400993,0.13916 l -3.73223,-0.61743 c -0.139082,-0.0237 -0.243644,-0.11931 -0.274521,-0.25113 l -0.810235,-3.53803 c -0.03087,-0.13182 0.01905,-0.28067 0.127649,-0.38922 l 2.922041,-2.92064 c 0.109481,-0.10943 0.261491,-0.16242 0.400992,-0.13917 z m 14.118182,25.191816 c -0.07793,-0.0713 -0.134817,-0.16511 -0.158049,-0.27234 l -0.244079,-1.12464 c -0.04018,-0.1645 0.03582,-0.13924 0.08424,-0.12165 0.197185,0.0743 0.239178,0.0885 0.487081,0.13162 0.0244,0.006 0.04374,0.0312 0.04943,0.054 l 0.185828,0.86552 c 0.0065,0.031 0.03469,0.0568 0.06618,0.0605 l 3.518496,0.58315 c 0.03267,0.005 0.07062,-0.0106 0.09589,-0.0358 l 2.753507,-2.75219 c 0.02619,-0.0261 0.04015,-0.0627 0.03452,-0.0945 l -0.765024,-3.33327 c -0.0065,-0.031 -0.03349,-0.0557 -0.06619,-0.0605 l -3.516303,-0.5833 c -0.03267,-0.005 -0.07452,0.007 -0.1011,0.0336 l -2.753505,2.75219 c -0.02619,0.0261 -0.03883,0.0613 -0.03191,0.0919 l 0.209158,0.91358 c 0.140027,0.46877 0.54345,0.43866 0.754096,0.22811 l 2.717782,-2.71648 c 0.03922,-0.0392 0.09548,-0.0429 0.130304,-0.011 l 0.271387,0.24826 c 0.03524,0.0323 0.03171,0.0875 -0.0058,0.12497 l -2.717734,2.71642 c -0.473159,0.47294 -0.975372,0.5326 -1.378421,0.16389 -0.12336,-0.11284 -0.221655,-0.20276 -0.344466,-0.59983 l -0.201765,-0.87343 c -0.05004,-0.21612 0.03124,-0.46154 0.210511,-0.64073 l 2.753506,-2.75219 c 0.178827,-0.17874 0.432473,-0.26733 0.660088,-0.22945 l 3.51959,0.58197 c 0.22138,0.0388 0.40152,0.20365 0.449691,0.41137 l 0.763817,3.33651 c 0.04965,0.21576 -0.03126,0.46154 -0.210516,0.64073 l -2.753507,2.75219 c -0.178833,0.17874 -0.431162,0.26603 -0.660081,0.22945 l -3.518501,-0.58313 c -0.112128,-0.0191 -0.212804,-0.0669 -0.292692,-0.14001 z m 2.558177,-1.28948 c -0.937712,-0.85782 -0.654637,-1.51568 -0.25188,-1.91824 0.03928,-0.0393 0.09548,-0.0429 0.13031,-0.011 l 0.276478,0.25291 c 0.03134,0.0287 0.0306,0.0781 0.0022,0.11475 -0.27256,0.35184 -0.307512,0.62446 0.260446,1.14403 0.450705,0.41231 0.757693,0.47438 1.023326,0.20888 0.153527,-0.15346 0.213772,-0.31711 -0.411636,-1.03453 -0.520872,-0.60007 -0.739134,-1.07611 -0.217557,-1.59744 0.481223,-0.48099 1.133169,-0.43468 1.743577,0.12373 0.685909,0.62747 0.760592,1.20347 0.233882,1.81118 -0.01566,0.0191 -0.04343,0.0354 -0.06891,0.0388 -0.02486,0.002 -0.04926,-0.003 -0.06727,-0.0198 l -0.277654,-0.254 c -0.02744,-0.0251 -0.0322,-0.0713 -0.0058,-0.10889 0.263995,-0.39057 0.207159,-0.64563 -0.232073,-1.04744 -0.492134,-0.4502 -0.741655,-0.31191 -0.884718,-0.16891 -0.174467,0.17438 -0.156398,0.28526 0.410655,0.99188 0.561121,0.69867 0.736622,1.12224 0.221852,1.63676 -0.519302,0.51905 -1.205513,0.46126 -1.884254,-0.15965 z M 34.261514,31.95706 c 0.0244,0.006 0.04397,0.0235 0.05289,0.0484 l 0.155762,0.679366 c 0.007,0.023 -0.0032,0.0556 -0.02356,0.0761 l -0.560833,0.56057 c -0.02183,0.0219 -0.051,0.0284 -0.0785,0.0259 l -0.716675,-0.11873 c -0.0244,-0.006 -0.04397,-0.0235 -0.05289,-0.0484 l -0.154741,-0.67844 c -0.007,-0.023 0.0032,-0.0556 0.02362,-0.0761 l 0.560832,-0.560566 c 0.02183,-0.0218 0.051,-0.0284 0.07844,-0.0259 z"
       id="path4966"
       style="fill:#008033;stroke-width:1.51296"
       inkscape:transform-center-x="2.6438216"
       inkscape:transform-center-y="-4.6348548" />
    <path
       fill="#444444"
       d="m 138.15676,92.796393 -3.71716,2.24217 4.78029,7.924967 -1.24662,0.75195 3.81723,6.32835 1.24662,-0.75195 8.56306,14.19619 7.43363,-4.48393 -17.16002,-28.448577 -3.71716,2.24217 z m 4.77976,7.924067 -2.47054,1.49022 -0.96307,-1.59662 3.69448,-2.228487 -0.92859,-1.53946 -3.69449,2.22849 -1.96005,-3.24946 4.9411,-2.98045 3.85173,6.38554 z m 4.76858,7.91716 -2.48087,1.47309 -1.86642,-3.11165 -1.25088,0.75453 -1.96006,-3.24946 6.18773,-3.73241 3.8517,6.3855 -2.481,1.48251 z m 6.68311,11.06792 -2.47054,1.49022 -0.96307,-1.59662 3.69449,-2.22849 -0.96307,-1.59662 -3.71716,2.24217 -0.936,-1.6129 3.69024,-2.22593 -0.9286,-1.53946 -3.69449,2.22849 -1.92558,-3.1923 4.94111,-2.98045 5.74281,9.52065 -2.47057,1.49023 z m -8.5625,-14.19526 -1.22395,0.73827 0.89412,1.48231 2.44861,-1.47699 -0.89412,-1.48231 -1.22394,0.73828 z"
       id="path5109"
       style="fill:#ff2a2a;stroke-width:0.936124" />
    <path
       fill="#444444"
       d="m 185.49519,88.779663 c -0.0877,-0.88104 -0.46573,-1.5648 -1.03622,-2.10059 -0.66069,-0.61994 -1.43421,-0.87526 -2.25849,-0.91587 -0.67202,-0.0329 -1.32951,0.087 -1.96362,0.3637 -0.18059,0.0782 -0.35776,0.17107 -0.53985,0.25916 -0.0244,-0.0534 -0.0499,-0.10344 -0.071,-0.15681 -0.18699,-0.45845 -0.41253,-0.89653 -0.46168,-1.42169 -0.0353,-0.37332 -0.0789,-0.74663 -0.006,-1.11512 0.071,-0.35493 0.16445,-0.70405 0.25155,-1.05514 0.0451,-0.18093 0.0122,-0.28146 -0.12973,-0.3626 -0.0499,-0.0292 -0.10385,-0.0534 -0.15867,-0.0629 -0.35292,-0.0611 -0.70019,-0.0256 -1.04184,0.0928 -0.1209,0.0424 -0.20861,0.12391 -0.23541,0.28438 -0.0152,0.0917 -0.0466,0.17984 -0.0676,0.27086 -0.0895,0.37814 -0.15226,0.76304 -0.29661,1.12283 -0.36179,0.9033 -0.77352,1.7718 -1.19652,2.63445 -0.046,0.0928 -0.0935,0.18459 -0.15136,0.2979 -0.14831,-0.37236 -0.30618,-0.70602 -0.35451,-1.09867 -0.0539,-0.44295 -0.0965,-0.88491 -0.006,-1.32497 0.0685,-0.32788 0.15806,-0.64991 0.23998,-0.97293 0.0396,-0.15389 0.0213,-0.23394 -0.095,-0.31545 -0.0588,-0.0406 -0.12486,-0.0775 -0.19094,-0.0888 -0.36581,-0.0647 -0.72599,-0.0292 -1.07809,0.10637 -0.10963,0.0424 -0.16688,0.12757 -0.20069,0.26319 -0.0984,0.39945 -0.18211,0.80855 -0.31988,1.18862 -0.55922,1.53771 -1.1337,3.06774 -1.7082,4.59675 -0.11999,0.31911 -0.26038,0.62769 -0.39562,0.93813 -0.0347,0.0793 -0.0838,0.14804 -0.12639,0.22225 -0.0347,-0.0482 -0.0475,-0.0822 -0.0475,-0.11515 7.9e-4,-0.19628 -0.0183,-0.39945 0.0122,-0.58897 0.0944,-0.5745 0.20312,-1.14703 0.31827,-1.71667 0.0944,-0.47004 0.20465,-0.9362 0.31023,-1.40429 0.0353,-0.15682 0.0362,-0.30266 -0.0579,-0.43422 -0.15714,-0.22041 -0.48589,-0.26903 -0.68088,-0.0987 -0.0213,0.0183 -0.046,0.0292 -0.0862,0.0589 0.006,-0.0746 0.0122,-0.12099 0.0183,-0.16741 0.0411,-0.35786 0.049,-0.71377 -0.0323,-1.06676 -0.10232,-0.43908 -0.36261,-0.69151 -0.74209,-0.67795 -0.17724,0.007 -0.36261,0.0424 -0.52617,0.11989 -0.68892,0.32386 -1.2183,0.89749 -1.66871,1.58801 -0.0411,0.0629 -0.095,0.11989 -0.15226,0.15754 -0.58255,0.38783 -1.16753,0.77079 -1.75169,1.15573 -0.21835,0.14329 -0.43671,0.28731 -0.65025,0.42745 -0.17389,-0.20031 -0.33276,-0.40716 -0.51326,-0.58316 -0.5495,-0.53773 -1.1079,-1.0619 -1.66063,-1.59386 -0.48991,-0.47098 -0.96532,-0.96229 -1.32869,-1.58607 -0.27073,-0.46422 -0.44477,-0.97197 -0.46088,-1.54644 -0.0213,-0.73117 0.15135,-1.39943 0.46167,-2.02225 0.39724,-0.79598 0.93791,-1.43427 1.53334,-2.0136 0.62929,-0.61218 1.31017,-1.13153 2.01599,-1.60544 0.98706,-0.66343 2.00311,-1.25047 3.09168,-1.6383 1.11676,-0.39748 2.24884,-0.62476 3.41719,-0.46616 0.45927,0.0618 0.90483,0.18861 1.31498,0.45841 0.31343,0.20616 0.57046,0.47585 0.69051,0.89847 0.11755,0.41586 0.1145,0.83659 0.0323,1.25823 -0.16598,0.85398 -0.55599,1.55902 -1.04669,2.18864 -0.80413,1.03193 -1.78552,1.73404 -2.89102,2.19826 -0.63736,0.26793 -1.29324,0.43618 -1.96684,0.50388 -0.54953,0.0552 -1.08777,-0.003 -1.60828,-0.23321 -0.34486,-0.15169 -0.64458,-0.38494 -0.88632,-0.72247 -0.0435,-0.061 -0.0984,-0.12574 -0.17876,-0.0694 -0.0789,0.0552 -0.0926,0.14621 -0.0661,0.23687 0.0442,0.15169 0.0847,0.3085 0.15379,0.44389 0.17237,0.33958 0.42465,0.58609 0.7018,0.79788 0.53261,0.40621 1.12727,0.54256 1.74447,0.57447 0.93627,0.0483 1.85,-0.1188 2.75002,-0.42069 1.28599,-0.43037 2.40355,-1.19053 3.30034,-2.38976 0.74694,-0.99808 1.27954,-2.12577 1.39395,-3.48653 0.0557,-0.66442 -0.003,-1.31528 -0.26281,-1.92071 -0.28109,-0.65667 -0.7276,-1.1093 -1.26181,-1.4449 -0.77675,-0.48937 -1.61633,-0.68182 -2.48252,-0.73789 -0.2893,0 -0.57852,0 -0.8678,0 -1.04989,0.061 -2.06432,0.32605 -3.05056,0.75628 -0.74611,0.32605 -1.47855,0.69344 -2.18922,1.11896 -1.54786,0.92844 -2.98935,2.0387 -4.17298,3.57743 -0.5898,0.76692 -1.08939,1.60833 -1.37623,2.60447 -0.0838,0.29206 -0.13552,0.60155 -0.19582,0.9033 -0.006,0.0256 0.0183,0.0493 -0.0332,0.0746 0,0.14219 0,0.28328 0,0.42555 0.0515,0.10929 0.0572,0.21749 0.0807,0.32678 0.15227,0.70891 0.46573,1.31821 0.8541,1.87334 0.55356,0.79111 1.22314,1.42746 1.91769,2.02708 0.60189,0.51934 1.21263,1.0271 1.81695,1.54257 0.10385,0.0881 0.19978,0.19044 0.31264,0.299 -0.0965,0.0629 -0.17816,0.11807 -0.2619,0.16924 -0.7977,0.4855 -1.56477,1.02999 -2.2722,1.68959 -0.42626,0.39747 -0.83881,0.82013 -1.12968,1.37139 -0.46813,0.88783 -0.63413,1.83368 -0.28535,2.84334 0.10233,0.29498 0.25795,0.55031 0.477,0.73793 0.071,0.061 0.15074,0.12172 0.23358,0.14512 0.21287,0.0599 0.43027,0.0998 0.64622,0.14694 0.20373,0 0.40689,0 0.61075,0 0.676,-0.0724 1.2908,-0.35018 1.84597,-0.81049 0.86859,-0.71954 1.45358,-1.68374 1.70576,-2.92266 0.18303,-0.89942 0.19003,-1.80078 -0.0244,-2.69633 -0.0213,-0.0833 -0.0451,-0.16449 -0.0719,-0.24454 -0.0274,-0.0804 -0.0573,-0.15864 -0.0935,-0.25916 0.46088,-0.31837 0.92341,-0.63733 1.38508,-0.95651 0.006,0.007 0.0152,0.0146 0.0213,0.0219 -0.0244,0.0987 -0.0515,0.19738 -0.0749,0.2979 -0.16445,0.72149 -0.27409,1.4555 -0.2345,2.20407 0.042,0.79788 0.22719,1.54451 0.61641,2.21182 0.31425,0.53967 1.06439,0.559 1.39877,0.0183 0.11846,-0.19227 0.23357,-0.39265 0.31988,-0.60733 0.22566,-0.55999 0.43512,-1.12963 0.65024,-1.6954 0.009,-0.0256 0.0183,-0.0482 0.0378,-0.10344 -0.0152,0.26793 -0.0338,0.50289 -0.042,0.73888 -0.0122,0.3675 0.006,0.7331 0.10963,1.08321 0.0895,0.29973 0.2418,0.52322 0.52776,0.56189 0.19491,0.0256 0.35131,-0.0804 0.49475,-0.21676 0.22475,-0.21274 0.40689,-0.47486 0.54226,-0.77372 0.38274,-0.8443 0.77595,-1.68278 1.12321,-2.54836 0.3755,-0.93619 0.70342,-1.89947 1.05233,-2.85113 0.0183,-0.0523 0.0362,-0.10527 0.0582,-0.16924 0.0822,0.38878 0.14009,0.7689 0.24576,1.1296 0.12243,0.4178 0.27469,0.82595 0.44076,1.22248 0.0783,0.18751 0.0694,0.3096 -0.0396,0.46616 -0.45446,0.65762 -0.90085,1.32303 -1.34803,1.9884 -0.099,0.14694 -0.19734,0.29608 -0.27956,0.45648 -0.0499,0.0976 -0.0831,0.21566 -0.0968,0.3297 -0.0274,0.21749 0.0847,0.4265 0.27865,0.4768 0.17663,0.0453 0.36501,0.0629 0.54551,0.0464 0.62363,-0.0552 1.19009,-0.31837 1.69127,-0.76308 0.64863,-0.57739 0.8573,-1.36364 0.70019,-2.29695 -0.0426,-0.25331 -0.11755,-0.49997 -0.19095,-0.7437 -0.0329,-0.11039 -0.0347,-0.18752 0.0244,-0.29023 0.51893,-0.88882 0.96209,-1.83273 1.37383,-2.79696 0.0152,-0.0376 0.0332,-0.0764 0.0612,-0.11697 0.13369,0.83461 0.33438,1.6383 0.69455,2.36753 -0.18363,0.21274 -0.36581,0.40523 -0.5302,0.61797 -0.36258,0.46714 -0.67683,0.97585 -0.84039,1.5948 -0.07,0.26684 -0.12486,0.53773 -0.0935,0.82401 0.049,0.44295 0.35131,0.73019 0.71389,0.62959 0.77595,-0.21566 1.44633,-0.65473 1.93623,-1.43232 0.32954,-0.52322 0.35936,-1.10734 0.22171,-1.71956 -0.0378,-0.16632 -0.0828,-0.32971 -0.13126,-0.52129 0.19186,-0.0716 0.37869,-0.15681 0.57128,-0.20981 1.00317,-0.27451 1.99504,-0.22626 2.96112,0.20799 0.56403,0.25331 1.0201,0.67893 1.29001,1.34723 0.33036,0.81721 0.1474,1.59188 -0.49393,2.10833 -0.0597,0.0482 -0.1282,0.0863 -0.17815,0.14622 -0.0305,0.0369 -0.0484,0.11112 -0.0411,0.16156 0.003,0.0292 0.07,0.0665 0.1072,0.0665 0.21104,-0.002 0.38191,-0.13452 0.54627,-0.27086 0.41173,-0.34141 0.68329,-0.80175 0.74776,-1.40619 0.002,-0.0183 -0.0183,-0.0329 0.0323,-0.0504 0,-0.13452 0,-0.26794 0,-0.40234 -0.0515,-0.0183 -0.0305,-0.0329 -0.0314,-0.0504 z m -19.62405,1.63446 c -0.067,1.07835 -0.47377,1.95262 -1.13933,2.65959 -0.37467,0.39847 -0.80334,0.68182 -1.30372,0.78147 -0.1812,0.0365 -0.3666,0.0446 -0.54305,-0.0453 -0.25063,-0.12866 -0.307,-0.39554 -0.31184,-0.68087 -0.006,-0.45358 0.12486,-0.86364 0.30618,-1.2534 0.23693,-0.50871 0.58419,-0.8965 0.95481,-1.25822 0.58419,-0.5706 1.21829,-1.05415 1.86692,-1.50968 0.009,-0.007 0.0244,-0.011 0.049,-0.0256 0.0999,0.44485 0.14831,0.88396 0.11999,1.33173 z m 5.06817,-4.68576 c -0.0475,0.34433 -0.10629,0.68863 -0.19003,1.02228 -0.28992,1.15474 -0.66152,2.27469 -1.06359,3.37819 -0.074,0.20396 -0.18212,0.39071 -0.27652,0.58411 -0.0152,0.0292 -0.0362,0.0563 -0.0572,0.0812 -0.11603,0.13817 -0.22719,0.13049 -0.28596,-0.0504 -0.0685,-0.20982 -0.11025,-0.43425 -0.14648,-0.65668 -0.0244,-0.14913 -0.0183,-0.30558 -0.0244,-0.45841 0.009,-1.08609 0.28352,-2.07449 0.75257,-2.99328 0.19338,-0.37909 0.40369,-0.73983 0.72437,-0.98068 0.0993,-0.0735 0.20952,-0.13232 0.3215,-0.17107 0.17084,-0.0581 0.27651,0.0377 0.24819,0.24381 z m 3.45748,5.28731 c 0.41414,-0.58027 0.82748,-1.1596 1.24244,-1.74182 0.0515,0.64703 -0.86375,1.93815 -1.24244,1.74182 z m 3.9691,-1.17119 c -0.0877,0.06 -0.18364,0.10454 -0.27378,0.15974 -0.0822,0.0512 -0.10963,0 -0.11207,-0.0852 -0.002,-0.0581 0.006,-0.11807 0.0183,-0.17399 0.16749,-0.71085 0.4762,-1.31627 0.93629,-1.80952 0.006,-0.007 0.0183,-0.011 0.0323,-0.0219 0.21835,0.7331 -0.0338,1.53968 -0.60191,1.92944 z"
       id="path5492"
       style="fill:#800080;stroke-width:0.882759" />
    <path
       fill="#444444"
       d="m 226.3667,22.910461 h -22.24305 c -1.02362,0 -1.85358,0.72459 -1.85358,1.61825 v 16.18252 c 0,0.89367 0.82996,1.61825 1.85358,1.61825 h 22.24305 c 1.02362,0 1.85359,-0.72458 1.85359,-1.61825 v -16.18252 c 0,-0.89366 -0.82997,-1.61825 -1.85359,-1.61825 z m -20.38945,11.32776 3.70717,-3.2365 -3.70717,-3.2365 1.85358,-1.61825 5.56076,4.85475 -5.56076,4.85475 z m 14.82869,1.61825 h -7.41435 v -1.61825 h 7.41435 z"
       id="path5960"
       style="fill:#1f241c;stroke-width:1.07707" />
    <path
       fill="#444444"
       d="m 204.4164,121.18254 c 0.0356,0.0355 0.10625,0.0889 0.15954,0.0889 h 0.94189 c 0.0536,0 0.12391,-0.0534 0.15954,-0.0889 l 0.24878,-0.26566 c 0.0356,-0.0355 0.0536,-0.071 0.0536,-0.10581 l 0.26676,-0.90249 c 0.0193,-0.0889 0,-0.17678 -0.0536,-0.23017 l -0.19517,-0.1592 c -0.0356,-0.0355 -0.10626,-0.0192 -0.15954,-0.0192 h -0.85272 l -0.0536,-0.0534 c -0.0356,0 -0.0713,-0.0192 -0.1069,0.0192 l -0.33802,0.21227 c -0.0356,0 -0.0536,0.0889 -0.0713,0.1234 l -0.28441,0.86694 c -0.0356,0.0889 -0.0193,0.19468 0.0536,0.26565 l 0.23112,0.24775 z m 0.14188,4.67227 -0.0713,0.0192 h -0.21315 l 1.27995,-3.73428 c 0.0356,-0.1234 -0.0193,-0.26565 -0.14189,-0.30114 l -0.0713,-0.0192 h -2.15049 c -0.0892,0.0192 -0.15986,0.0889 -0.17751,0.17678 l -0.12391,0.44234 c -0.0356,0.1234 0.0536,0.23017 0.17752,0.26566 l 0.0536,-0.0192 h 0.32005 l -1.29777,3.69879 c -0.0356,0.1234 0.0193,0.28323 0.14189,0.33662 l 0.0713,0.0534 h 1.99082 c 0.10625,0 0.19549,-0.0889 0.23112,-0.19437 l 0.12391,-0.4246 c 0.0536,-0.12435 -0.0193,-0.26565 -0.14188,-0.30113 v 0 z m 9.43775,-3.48645 -0.33802,-0.44235 v -0.0192 c -0.0536,-0.0534 -0.10625,-0.10581 -0.17752,-0.10581 h -1.27995 c -0.0713,0 -0.12391,0.071 -0.17751,0.10581 l -0.35587,0.4246 h -0.5512 l -0.37285,-0.4246 v -0.0192 c -0.0356,-0.0534 -0.1069,-0.0889 -0.17752,-0.0889 h -0.7109 l 3.59014,-3.57526 -4.0165,-3.96435 3.59011,-3.68102 v -1.59268 l -0.49769,-0.63689 h -7.26858 l -0.58687,0.61912 v 0.51341 l -2.00866,-2.01728 -1.36829,1.32709 -0.42636,-0.44234 h -7.18021 l -0.56905,0.65464 v 1.66374 l 0.53336,0.5134 h 0.53338 v 4.61902 l -2.48767,2.47743 2.48767,2.47825 v 5.66361 l 0.92408,0.5134 h 2.06131 l 1.61714,-1.68148 3.83897,3.82308 2.57685,-2.5662 c 0.0193,0.071 0.0713,0.0889 0.15954,0.1234 l 0.0713,-0.0355 h 1.67062 c 0.10689,0 0.19549,-0.0192 0.21315,-0.10581 l 0.12391,-0.35357 c 0.0356,-0.12339 -0.0193,-0.23016 -0.14189,-0.26565 l -0.0713,0.0192 h -0.0713 l 0.60472,-1.89381 0.40854,-0.40683 h 0.88839 l -0.88839,2.81402 c -0.0356,0.12339 0.0356,0.19468 0.15954,0.24775 l 0.0713,-0.0355 h 1.61714 c 0.0892,0 0.17751,-0.0192 0.21315,-0.10581 l 0.14188,-0.31904 c 0.0536,-0.1234 -0.0193,-0.23017 -0.12391,-0.28324 -0.0193,-0.0192 -0.0536,0 -0.0892,0 h -0.0713 l 0.74656,-2.30064 h 1.08375 l -0.90623,2.81405 c -0.0356,0.12339 0.0356,0.19468 0.15954,0.23017 l 0.0713,-0.0534 h 1.77767 c 0.0892,0 0.17752,-0.0192 0.21315,-0.10581 l 0.14189,-0.35357 c 0.0536,-0.1234 -0.0193,-0.23017 -0.14189,-0.26565 -0.0193,-0.0192 -0.0536,0.0192 -0.0892,0.0192 h -0.12391 l 0.99541,-3.27419 c 0.0356,-0.0889 0.0193,-0.19437 -0.0193,-0.24776 v 0 z m -11.33939,-14.56586 2.00866,2.00036 v 0.83229 l 0.60388,0.7257 h 0.28441 l -5.15372,4.95568 v -4.95568 h 0.58689 l 0.47988,-0.74344 v -1.57494 l -0.0356,-0.0534 1.22644,-1.18582 z m -10.62765,10.47718 2.15048,-2.14163 v 4.28323 z m 6.91354,6.77923 10.37878,-10.61925 3.80331,3.80534 -3.59013,3.57526 h -0.0193 c -0.0536,0.0192 -0.0892,0.0534 -0.12391,0.0889 l -0.37282,0.42459 h -0.51557 l -0.39066,-0.42459 c -0.0356,-0.0534 -0.10689,-0.10582 -0.17752,-0.10582 h -1.56362 c -0.10625,0 -0.19549,0.071 -0.23112,0.17678 l -0.14189,0.44238 c -0.0356,0.12339 0.0193,0.23017 0.14189,0.28323 h 0.26675 l -1.13723,3.34523 -2.6839,2.69055 -3.64361,-3.68102 z"
       id="path6133"
       style="fill:#008000;stroke-width:0.847571" />
    <path
       fill="#444444"
       d="M 17.398275,117.49075 H 8.1696648 v -7.58777 l 9.2286102,-1.26446 z m 13.67849,0 h -12.44195 v -9.00894 l 12.44195,-1.74045 z m -13.67849,1.02744 H 8.1696648 v 7.58773 l 9.2286102,1.26447 z m 13.67849,0 h -12.44195 v 9.0089 l 12.44195,1.74049 z"
       id="path6278"
       style="fill:#00ffff;stroke-width:1.00005" />
    <g
       id="g15310"
       transform="matrix(1.1746736,0,0,1.1952794,47.392499,83.762954)">
      <path
         d="m 16.5,30 -0.011,-0.321 c 0.4,-0.014 0.8,-0.045 1.19,-0.094 l 0.039,0.319 C 17.312,29.952 16.9,29.984 16.5,30 Z m -1.222,-0.011 c -0.4,-0.021 -0.814,-0.061 -1.216,-0.118 l 0.045,-0.318 c 0.393,0.055 0.793,0.094 1.188,0.115 z M 18.92,29.7 18.853,29.386 c 0.387,-0.083 0.776,-0.184 1.155,-0.3 l 0.094,0.307 c -0.388,0.118 -0.786,0.222 -1.182,0.307 z m -6.063,-0.053 c -0.4,-0.091 -0.791,-0.2 -1.177,-0.326 l 0.1,-0.306 c 0.377,0.122 0.764,0.23 1.15,0.319 z m 8.4,-0.665 -0.121,-0.3 c 0.364,-0.148 0.728,-0.314 1.08,-0.493 h 0.006 l 0.145,0.286 v 0 C 22,28.661 21.626,28.831 21.253,28.982 Z M 10.539,28.894 C 10.165,28.736 9.794,28.559 9.439,28.37 l 0.15,-0.284 c 0.35,0.186 0.713,0.358 1.078,0.512 z M 23.432,27.873 23.262,27.6 c 0.337,-0.21 0.668,-0.437 0.984,-0.675 l 0.193,0.257 c -0.328,0.243 -0.667,0.476 -1.011,0.691 z M 8.379,27.751 c -0.341,-0.22 -0.676,-0.459 -1,-0.708 l 0.2,-0.253 c 0.312,0.243 0.64,0.476 0.972,0.691 z m 17,-1.346 -0.215,-0.239 c 0.294,-0.265 0.58,-0.546 0.851,-0.836 l 0.235,0.219 c -0.278,0.297 -0.571,0.585 -0.872,0.851 z M 6.454,26.252 c -0.3,-0.276 -0.585,-0.569 -0.856,-0.87 l 0.239,-0.215 c 0.265,0.294 0.547,0.58 0.836,0.85 z m 20.587,-1.632 -0.253,-0.2 c 0.244,-0.312 0.476,-0.639 0.692,-0.972 l 0.27,0.175 C 27.529,23.966 27.29,24.3 27.041,24.62 Z M 4.82,24.439 C 4.576,24.115 4.344,23.777 4.128,23.432 L 4.4,23.262 c 0.21,0.337 0.438,0.668 0.676,0.984 z m 23.547,-1.867 -0.284,-0.151 c 0.186,-0.35 0.358,-0.713 0.513,-1.078 l 0.3,0.125 c -0.161,0.375 -0.338,0.746 -0.528,1.104 z M 3.526,22.372 3.52,22.36 C 3.337,22.001 3.168,21.632 3.02,21.26 l 0.3,-0.121 c 0.147,0.362 0.312,0.724 0.491,1.074 l 0.006,0.012 z m 25.794,-2.047 -0.306,-0.1 c 0.122,-0.377 0.23,-0.764 0.319,-1.15 l 0.313,0.072 c -0.091,0.396 -0.2,0.792 -0.326,1.178 z M 2.608,20.107 C 2.488,19.719 2.385,19.321 2.3,18.925 l 0.314,-0.067 c 0.083,0.387 0.184,0.776 0.3,1.155 z M 29.87,17.946 29.552,17.901 c 0.056,-0.393 0.094,-0.793 0.115,-1.188 l 0.321,0.017 c -0.021,0.405 -0.061,0.814 -0.118,1.216 z M 2.1,17.72 C 2.05,17.32 2.018,16.908 2,16.502 l 0.321,-0.011 c 0.014,0.4 0.046,0.8 0.094,1.19 z m 27.582,-2.2 c -0.014,-0.4 -0.045,-0.8 -0.093,-1.19 l 0.319,-0.039 c 0.049,0.4 0.082,0.813 0.1,1.218 z M 2.331,15.3 2.01,15.28 c 0.021,-0.405 0.061,-0.814 0.117,-1.216 l 0.318,0.045 C 2.39,14.5 2.352,14.9 2.331,15.3 Z m 27.057,-2.144 c -0.083,-0.387 -0.184,-0.776 -0.3,-1.155 L 29.4,11.9 c 0.119,0.388 0.223,0.786 0.307,1.183 z M 2.663,12.934 2.35,12.862 c 0.091,-0.4 0.2,-0.791 0.326,-1.177 l 0.306,0.1 c -0.123,0.376 -0.23,0.763 -0.319,1.149 z M 28.689,10.872 C 28.54,10.506 28.374,10.14 28.189,9.786 L 28.475,9.64 c 0.185,0.363 0.355,0.736 0.507,1.111 z M 3.4,10.665 3.1,10.54 C 3.258,10.166 3.434,9.795 3.624,9.44 L 3.908,9.59 C 3.724,9.937 3.552,10.3 3.4,10.665 Z M 4.513,8.557 4.243,8.383 c 0.22,-0.341 0.458,-0.676 0.707,-1 l 0.254,0.2 C 4.961,7.9 4.728,8.224 4.513,8.557 Z M 5.977,6.676 5.742,6.457 C 6.018,6.157 6.311,5.872 6.612,5.6 L 6.827,5.839 C 6.533,6.1 6.247,6.386 5.977,6.676 Z M 7.747,5.076 7.554,4.819 C 7.877,4.575 8.216,4.342 8.561,4.127 l 0.17,0.272 C 8.394,4.614 8.063,4.841 7.747,5.079 Z M 23.452,4.518 23.434,4.506 23.609,4.236 23.627,4.247 Z M 22.405,3.902 C 22.055,3.716 21.692,3.544 21.327,3.39 l 0.125,-0.3 c 0.374,0.158 0.745,0.334 1.1,0.524 z M 9.769,3.815 9.623,3.529 9.641,3.52 c 0.356,-0.181 0.724,-0.349 1.093,-0.5 l 0.121,0.3 C 10.494,3.467 10.135,3.631 9.787,3.808 Z M 20.209,2.977 C 19.832,2.855 19.445,2.748 19.058,2.66 L 19.13,2.347 c 0.4,0.091 0.792,0.2 1.178,0.325 z M 11.98,2.917 11.886,2.61 c 0.388,-0.119 0.786,-0.223 1.182,-0.308 l 0.067,0.314 C 12.747,2.7 12.359,2.8 11.98,2.917 Z m 5.9,-0.473 C 17.487,2.389 17.087,2.352 16.692,2.331 L 16.708,2.01 c 0.405,0.021 0.814,0.059 1.216,0.115 z M 14.308,2.418 14.268,2.099 c 0.4,-0.05 0.812,-0.083 1.218,-0.1 l 0.012,0.321 c -0.392,0.017 -0.793,0.049 -1.186,0.098 z"
         style="fill:#808080"
         id="path15283" />
      <circle
         cx="16"
         cy="15.998"
         r="10.708"
         style="fill:#000080"
         id="circle15285" />
      <circle
         cx="20.434999"
         cy="11.562"
         r="3.1359999"
         style="fill:#ffffff"
         id="circle15287" />
      <circle
         cx="26.708"
         cy="5.29"
         r="3.1370001"
         style="fill:#000080"
         id="circle15289" />
      <path
         d="m 13.1,21.352 v -0.79 H 9.629 v -6.236 h -0.9 v 7.026 H 13.1"
         style="fill:#ffffff"
         id="path15291" />
      <path
         d="M 17.916,21.352 V 16.3 h -0.8 v 2.785 c 0,1.031 -0.54,1.706 -1.378,1.706 A 0.95,0.95 0 0 1 14.7,19.8 v -3.5 h -0.8 v 3.817 c 0,0.838 0.626,1.378 1.609,1.378 a 1.863,1.863 0 0 0 1.687,-0.925 v 0.781 h 0.723"
         style="fill:#ffffff"
         id="path15293" />
      <path
         d="m 23.791,21.333 v -0.607 a 0.664,0.664 0 0 1 -0.173,0.019 c -0.279,0 -0.434,-0.145 -0.434,-0.4 v -2.809 c 0,-0.9 -0.655,-1.378 -1.9,-1.378 -1.224,0 -1.976,0.472 -2.024,1.638 h 0.81 c 0.067,-0.617 0.434,-0.9 1.185,-0.9 0.723,0 1.128,0.27 1.128,0.752 v 0.212 c 0,0.337 -0.2,0.482 -0.838,0.559 a 5.763,5.763 0 0 0 -1.619,0.308 1.327,1.327 0 0 0 -0.887,1.311 c 0,0.916 0.636,1.455 1.658,1.455 a 2.363,2.363 0 0 0 1.715,-0.742 0.855,0.855 0 0 0 0.829,0.665 1.967,1.967 0 0 0 0.549,-0.087 m -1.407,-1.725 a 1.366,1.366 0 0 1 -1.513,1.185 c -0.626,0 -0.993,-0.222 -0.993,-0.771 0,-0.53 0.357,-0.761 1.214,-0.887 a 4,4 0 0 0 1.291,-0.279 v 0.752"
         style="fill:#ffffff"
         id="path15295" />
    </g>
    <g
       id="g16861"
       transform="matrix(1.3820817,0,0,1.4310788,92.179351,42.591077)">
      <path
         d="M 18.191,13.071 H 20.7 v 2.566 h 1.27 a 5.5,5.5 0 0 0 1.744,-0.292 4.462,4.462 0 0 0 0.848,-0.383 3.149,3.149 0 0 1 -0.589,-1.623 3.427,3.427 0 0 1 0.616,-2.416 l 0.264,-0.305 0.314,0.253 a 4,4 0 0 1 1.575,2.538 3.837,3.837 0 0 1 2.913,0.271 l 0.345,0.2 -0.181,0.354 a 3.629,3.629 0 0 1 -3.648,1.74 c -2.173,5.413 -6.9,7.976 -12.642,7.976 A 7.958,7.958 0 0 1 6.3,20.211 L 6.275,20.168 6.049,19.709 A 7.28,7.28 0 0 1 5.47,16.016 l 0.035,-0.38 h 2.143 v -2.565 h 2.51 v -2.51 h 5.02 v -2.51 h 3.012 v 5.02 z"
         style="fill:#3a4e55"
         id="path16798" />
      <path
         d="M 26.324,14.021 A 3.311,3.311 0 0 0 24.906,11.2 3.072,3.072 0 0 0 25.195,15.021 5.279,5.279 0 0 1 21.97,16.058 H 5.883 a 6.779,6.779 0 0 0 0.667,3.737 l 0.183,0.335 a 6.2,6.2 0 0 0 0.379,0.569 v 0 q 0.992,0.064 1.829,0.045 v 0 a 8.972,8.972 0 0 0 2.669,-0.389 0.19306799,0.19306799 0 1 1 0.126,0.365 c -0.09,0.031 -0.184,0.061 -0.281,0.088 v 0 a 8.4,8.4 0 0 1 -1.845,0.3 c 0.044,0 -0.046,0.007 -0.046,0.007 l -0.082,0.007 c -0.291,0.016 -0.6,0.02 -0.925,0.02 -0.351,0 -0.7,-0.007 -1.083,-0.026 l -0.01,0.007 a 7.882,7.882 0 0 0 6.063,2.41 c 5.56,0 10.276,-2.465 12.365,-8 1.482,0.152 2.906,-0.226 3.553,-1.49 a 3.5,3.5 0 0 0 -3.122,-0.022"
         style="fill:#00aada"
         id="path16800" />
      <path
         d="M 26.324,14.021 A 3.311,3.311 0 0 0 24.906,11.2 3.072,3.072 0 0 0 25.195,15.021 5.279,5.279 0 0 1 21.97,16.058 H 6.836 a 5.223,5.223 0 0 0 2.106,4.686 v 0 a 8.972,8.972 0 0 0 2.669,-0.389 0.19306799,0.19306799 0 1 1 0.126,0.365 c -0.09,0.031 -0.184,0.061 -0.281,0.088 v 0 A 8.83,8.83 0 0 1 9.562,21.122 L 9.543,21.1 c 1.892,0.971 4.636,0.967 7.782,-0.241 a 21.868,21.868 0 0 0 9.1,-6.889 l -0.1,0.048"
         style="fill:#27b9ec"
         id="path16802" />
      <path
         d="m 5.913,17.732 a 6.431,6.431 0 0 0 0.637,2.061 l 0.183,0.335 a 6.2,6.2 0 0 0 0.379,0.569 q 0.992,0.064 1.829,0.045 a 8.972,8.972 0 0 0 2.669,-0.389 0.19306799,0.19306799 0 1 1 0.126,0.365 c -0.09,0.031 -0.184,0.061 -0.281,0.088 v 0 a 8.826,8.826 0 0 1 -1.891,0.307 h -0.1 c -0.291,0.016 -0.6,0.026 -0.922,0.026 -0.351,0 -0.709,-0.007 -1.1,-0.026 a 7.913,7.913 0 0 0 6.076,2.413 c 4.76,0 8.9,-1.807 11.3,-5.8 z"
         style="fill:#088cb9"
         id="path16804" />
      <path
         d="m 6.98,17.732 a 4.832,4.832 0 0 0 1.961,3.01 8.972,8.972 0 0 0 2.669,-0.389 0.19306799,0.19306799 0 1 1 0.126,0.365 c -0.09,0.031 -0.184,0.061 -0.281,0.088 v 0 a 8.959,8.959 0 0 1 -1.9,0.307 c 1.892,0.971 4.628,0.957 7.773,-0.252 a 20.545,20.545 0 0 0 5.377,-3.13 z"
         style="fill:#039cc7"
         id="path16806" />
      <path
         d="m 9.889,13.671 h 0.172 v 1.813 H 9.889 Z m -0.33,0 h 0.179 v 1.813 H 9.559 Z m -0.33,0 h 0.179 v 1.813 H 9.23 v -1.813 z m -0.33,0 h 0.179 v 1.813 H 8.9 v -1.813 z m -0.33,0 h 0.179 v 1.813 H 8.57 v -1.813 z m -0.323,0 h 0.172 v 1.813 H 8.248 V 13.671 Z M 8.065,13.49 h 2.175 v 2.176 H 8.066 V 13.49 Z"
         style="fill:#00acd3"
         id="path16808" />
      <path
         d="m 12.4,11.161 h 0.172 v 1.813 H 12.4 Z m -0.33,0 h 0.179 v 1.813 H 12.07 Z m -0.33,0 h 0.179 v 1.813 H 11.74 Z m -0.33,0 h 0.179 v 1.813 H 11.41 Z m -0.33,0 h 0.178 v 1.813 H 11.08 Z m -0.323,0 h 0.172 v 1.813 H 10.757 Z M 10.576,10.98 h 2.176 v 2.176 h -2.175 v -2.177 z"
         style="fill:#00acd3"
         id="path16810" />
      <path
         d="m 12.4,13.671 h 0.172 v 1.813 H 12.4 Z m -0.33,0 h 0.179 v 1.813 H 12.07 Z m -0.33,0 h 0.179 v 1.813 H 11.74 Z m -0.33,0 h 0.179 v 1.813 H 11.41 Z m -0.33,0 h 0.178 v 1.813 H 11.08 Z m -0.323,0 h 0.172 v 1.813 H 10.757 Z M 10.576,13.49 h 2.176 v 2.176 H 10.577 V 13.49 Z"
         style="fill:#26c2ee"
         id="path16812" />
      <path
         d="m 14.909,13.671 h 0.172 v 1.813 h -0.172 z m -0.33,0 h 0.179 v 1.813 H 14.58 v -1.813 z m -0.33,0 h 0.179 v 1.813 H 14.25 v -1.813 z m -0.33,0 H 14.1 v 1.813 h -0.179 v -1.813 z m -0.33,0 h 0.179 v 1.813 h -0.179 z m -0.323,0 h 0.172 v 1.813 H 13.266 Z M 13.085,13.49 h 2.176 v 2.176 H 13.087 V 13.49 Z"
         style="fill:#00acd3"
         id="path16814" />
      <path
         d="m 14.909,11.161 h 0.172 v 1.813 h -0.172 z m -0.33,0 h 0.179 v 1.813 H 14.58 v -1.813 z m -0.33,0 h 0.179 v 1.813 H 14.25 v -1.813 z m -0.33,0 H 14.1 v 1.813 h -0.179 v -1.813 z m -0.33,0 h 0.179 v 1.813 h -0.179 z m -0.323,0 h 0.172 v 1.813 H 13.266 Z M 13.085,10.98 h 2.176 v 2.176 h -2.174 v -2.177 z"
         style="fill:#26c2ee"
         id="path16816" />
      <path
         d="m 17.42,13.671 h 0.172 v 1.813 H 17.42 Z m -0.33,0 h 0.179 v 1.813 H 17.09 Z m -0.33,0 h 0.179 v 1.813 H 16.76 Z m -0.33,0 h 0.179 v 1.813 H 16.43 Z m -0.33,0 h 0.179 v 1.813 H 16.1 Z m -0.323,0 h 0.172 v 1.813 H 15.777 Z M 15.6,13.49 h 2.176 v 2.176 H 15.6 Z"
         style="fill:#26c2ee"
         id="path16818" />
      <path
         d="m 17.42,11.161 h 0.172 v 1.813 H 17.42 Z m -0.33,0 h 0.179 v 1.813 H 17.09 Z m -0.33,0 h 0.179 v 1.813 H 16.76 Z m -0.33,0 h 0.179 v 1.813 H 16.43 Z m -0.33,0 h 0.179 v 1.813 H 16.1 Z m -0.323,0 h 0.172 v 1.813 H 15.777 Z M 15.596,10.98 h 2.176 v 2.176 H 15.6 v -2.177 z"
         style="fill:#00acd3"
         id="path16820" />
      <path
         d="m 17.42,8.65 h 0.172 v 1.813 H 17.42 Z m -0.33,0 h 0.179 v 1.813 H 17.09 Z m -0.33,0 h 0.179 v 1.813 H 16.76 Z m -0.33,0 h 0.179 v 1.813 H 16.43 Z m -0.33,0 h 0.179 v 1.813 H 16.1 Z m -0.323,0 h 0.172 v 1.813 H 15.777 Z M 15.6,8.469 h 2.176 v 2.176 H 15.6 Z"
         style="fill:#26c2ee"
         id="path16822" />
      <path
         d="m 19.93,13.671 h 0.17 v 1.813 h -0.17 z m -0.33,0 h 0.178 v 1.813 H 19.6 Z m -0.33,0 h 0.179 v 1.813 H 19.27 Z m -0.33,0 h 0.179 v 1.813 H 18.94 Z m -0.33,0 h 0.179 v 1.813 H 18.61 Z m -0.323,0 h 0.172 v 1.813 H 18.287 Z M 18.106,13.49 h 2.176 v 2.176 H 18.107 V 13.49 Z"
         style="fill:#00acd3"
         id="path16824" />
      <path
         d="m 12.616,19.193 a 0.6,0.6 0 1 1 -0.6,0.6 0.6,0.6 0 0 1 0.6,-0.6"
         style="fill:#d5eef2"
         id="path16826" />
      <path
         d="m 12.616,19.363 a 0.431,0.431 0 0 1 0.156,0.029 0.175,0.175 0 1 0 0.241,0.236 0.43,0.43 0 1 1 -0.4,-0.265"
         style="fill:#3a4e55"
         id="path16828" />
      <path
         d="m 2,17.949 h 27.92 c -0.608,-0.154 -1.923,-0.362 -1.707,-1.159 -1.105,1.279 -3.771,0.9 -4.444,0.267 -0.749,1.087 -5.111,0.674 -5.415,-0.173 -0.939,1.1 -3.85,1.1 -4.789,0 -0.3,0.847 -4.666,1.26 -5.415,0.173 -0.673,0.631 -3.338,1.012 -4.444,-0.267 0.217,0.8 -1.1,1.005 -1.707,1.159"
         style="fill:#3a4e55"
         id="path16830" />
      <path
         d="m 14.211,23.518 a 5.287,5.287 0 0 1 -2.756,-2.711 9.2,9.2 0 0 1 -1.987,0.3 q -0.436,0.024 -0.917,0.025 -0.554,0 -1.168,-0.033 a 7.942,7.942 0 0 0 6.145,2.43 q 0.344,0 0.683,-0.013"
         style="fill:#c0dbe1"
         id="path16832" />
      <path
         d="m 12.007,21.773 a 5.206,5.206 0 0 1 -0.552,-0.966 9.2,9.2 0 0 1 -1.987,0.3 6.325,6.325 0 0 0 2.539,0.664"
         style="fill:#d5eef2"
         id="path16834" />
    </g>
    <path
       fill="#444444"
       d="m 154.72388,19.806826 c -2.84085,3.46742 -6.04403,5.54391 -7.15116,4.63684 -0.60537,-0.49598 -1.26752,-1.03848 -2.00581,-1.64336 -0.17408,-0.14262 -0.2655,-0.36976 -0.31919,-0.63265 1.43744,0.007 4.0727,-1.90297 6.46793,-4.82648 2.39522,-2.92352 3.74987,-5.88307 3.45987,-7.29098 0.26888,10e-4 0.50856,0.0463 0.68268,0.18899 0.58103,0.47604 1.197,0.9807 2.00581,1.64336 1.10652,0.90656 -0.29868,4.45612 -3.13955,7.92357 z m -4.01163,-3.28671 c -2.84085,3.46742 -6.04466,5.54338 -7.15115,4.63684 -0.60537,-0.49598 -1.26691,-1.03798 -2.00581,-1.64336 -0.10614,-0.087 -0.1756,-0.21342 -0.23138,-0.35415 v 0 c -0.0381,-0.0848 -0.067,-0.178 -0.0882,-0.27921 1.43684,0.007 4.07273,-1.90296 6.46795,-4.82647 2.39523,-2.92351 3.74924,-5.8835931 3.45985,-7.2910031 0.10363,10e-4 0.20072,0.011 0.29111,0.0315 v 0 c 0.14838,0.0277 0.2866,0.0702 0.39275,0.1572 0.581,0.47602 1.19635,0.98017 2.00581,1.64336 1.10649,0.90654 -0.29869,4.4561231 -3.13956,7.9235631 z m -4.011,-3.28621 c -2.84085,3.46742 -6.04403,5.5439 -7.15116,4.63684 -0.31704,-0.25975 -0.65153,-0.5338 -1.00292,-0.82169 -0.31891,-0.26128 -0.64967,-0.53227 -1.0029,-0.82167 -1.10712,-0.90706 0.2987,-4.45612 3.13954,-7.9235431 2.84086,-3.46744 6.04405,-5.54392 7.15117,-4.63686 0.31267,0.25617 0.64467,0.52817 1.00289,0.82167 0.30706,0.25157 0.63097,0.51695 1.00292,0.82168 1.10713,0.90707 -0.29868,4.45613 -3.13954,7.9235731 z m -5.01391,-4.1078831 c -1.89462,2.3125031 -2.98195,4.5537031 -2.42715,5.0082531 0.55482,0.45457 2.53889,-1.05306 4.43297,-3.36489 1.89461,-2.3124931 2.98197,-4.5537131 2.42714,-5.0082831 -0.5548,-0.45455 -2.53887,1.05308 -4.43296,3.36492 z"
       id="path17518"
       style="fill:#00aad4;stroke-width:0.824268" />
    <text
       xml:space="preserve"
       transform="scale(0.26458333)"
       id="text19372"
       style="font-style:normal;font-weight:normal;font-size:40px;line-height:1.25;font-family:sans-serif;white-space:pre;shape-inside:url(#rect19374);fill:#000000;fill-opacity:1;stroke:none;filter:url(#filter19578)" />
  </g>
</svg>
